<?xml version="1.0" encoding="utf-8"?>
<!-- Generator: Adobe Illustrator 27.0.0, SVG Export Plug-In . SVG Version: 6.00 Build 0)  -->
<svg version="1.1" id="Layer_1" xmlns="http://www.w3.org/2000/svg" xmlns:xlink="http://www.w3.org/1999/xlink" x="0px" y="0px"
	 viewBox="0 0 1366 1074" style="enable-background:new 0 0 1366 1074;" xml:space="preserve">
<style type="text/css">
	.st0{fill:none;stroke:#000000;stroke-width:4;stroke-linecap:round;stroke-linejoin:round;}
	.st1{font-family:'Stencil';}
	.st2{font-size:30.8534px;}
	.st3{font-family:'CourierNewPS-BoldMT';}
	.st4{font-size:7.7134px;}
	.st5{fill-rule:evenodd;clip-rule:evenodd;stroke:#000000;stroke-width:4;stroke-linecap:round;stroke-linejoin:round;}
	.st6{fill:none;}
	.st7{font-size:5.1422px;}
</style>
<g>
	<path d="M581.9,433c-0.2-0.1-0.4-0.2-0.6-0.3c-0.6-0.2-1.5,0.2-1.9-0.4c-0.1-0.1-0.1-0.2-0.2-0.2c0.1,0,0.3,0,0.4,0.1
		c0,0,0.1,0.1,0.1,0.1c0.1,0,0.1-0.1,0.2-0.1c0.1-0.1,0.3,0.1,0.4,0.2c0.1,0.1,0.2,0.1,0.3,0c0,0,0-0.1,0.1-0.1c0-0.1,0-0.2,0-0.2
		c0,0,0.1,0,0.1,0c0.3,0.1,0.5,0.1,0.8,0.2c0.1,0,0.1,0,0.2,0c0,0,0,0,0-0.1c0-0.1,0-0.2,0-0.2c-0.1-0.2-0.2-0.4-0.4-0.6
		c0,0-0.1-0.1-0.1-0.1c-0.1-0.3,0-0.7-0.1-1c-0.1-0.2-0.3-0.2-0.5-0.1c-0.2,0-0.4,0-0.6-0.1c-0.2-0.1-0.3-0.3-0.5-0.4
		c-0.5-0.1-1.4-0.9-1.4-0.9c-0.2-0.2-0.4-0.5-0.6-0.6c0,0,0.1,0,0.1,0c0,0,0.1,0.1,0.2,0.1c0.1,0,0.2,0,0.2-0.1
		c0.1,0.2,0.2,0.4,0.3,0.5c0.2,0.2,0.4,0.2,0.6,0.4c0.1,0.1,0.1,0.1,0.2,0.2c0.1,0.1,0.1,0.1,0.2,0c0,0,0,0,0,0c0,0,0,0,0,0
		c0,0,0,0,0-0.1c0,0,0-0.1,0.1-0.1c0.1-0.1,0.2-0.2,0.3-0.2c0.1,0,0.3,0.1,0.4-0.1c0,0,0-0.1,0.1-0.1c0.1,0.1,0.2,0.3,0.4,0.3
		c0.1,0.1,0.3,0.1,0.4-0.1c0,0,0,0,0,0c0-0.1,0.1-0.2,0.1-0.3c0-0.3-0.1-0.6-0.3-0.9c0.2,0.1,0.3,0.1,0.4,0c0,0,0,0,0-0.1
		c0.1-0.2-0.1-0.4-0.2-0.5c-0.2-0.1-0.3-0.1-0.5-0.1c-0.6-0.1-1.3-0.5-1.8-1.2c-0.3-0.4-0.5-0.9-0.8-1.3c0,0,0,0,0,0
		c0-0.1,0-0.2,0-0.4c0-0.1,0-0.2-0.1-0.3c0,0,0,0.1,0.1,0.1c0.1,0.2,0.3,0.4,0.4,0.6c0.3,0.4,0.7,0.6,1.1,0.8c0.1,0,0.1,0.1,0.2,0.1
		c0.1,0.1,0.2,0.3,0.4,0.4c0,0,0.1,0,0.1,0c0,0,0,0,0,0c0,0,0-0.1,0.1-0.2c0,0,0,0,0,0c0.1,0.1,0.2,0.1,0.2,0.1c0,0,0.1,0,0.1-0.1
		c0,0,0-0.1,0.1-0.1c0.1-0.3-0.2-0.7-0.4-1c0,0-0.1-0.1,0-0.2c0,0,0-0.1,0-0.1c0-0.1,0.1-0.1,0.2-0.1c0.1,0,0.2,0,0.3-0.1
		c0,0,0,0,0,0c0.1-0.1,0-0.3-0.1-0.4c-0.1-0.1-0.3-0.1-0.4-0.2c-0.5-0.2-1,0.1-1.3-0.3c-0.1-0.1-0.2-0.2-0.3-0.3c0,0,0,0,0,0
		c0,0,0,0,0,0c0,0,0,0,0,0c0-0.1,0-0.1,0-0.2c0.2,0.4,0.5,0.6,0.8,0.6c0.1,0,0.1,0,0.2-0.1c0,0,0-0.1,0-0.1c0-0.1-0.1-0.3-0.2-0.4
		s-0.2-0.2-0.1-0.4c0,0,0,0,0-0.1c0,0,0.1-0.1,0.1-0.1c0.1,0,0.1-0.1,0.2-0.1c0.1-0.1,0.1-0.2,0.2-0.4c0-0.1,0-0.1,0-0.2
		c0-0.1-0.1-0.2-0.2-0.1c-0.1,0-0.1,0.1-0.2,0.2c-0.1,0.1-0.2,0.2-0.4,0.1c-0.1,0-0.2-0.1-0.3-0.2c-0.3-0.2-0.6-0.5-0.8-0.7
		c0,0-0.1-0.1-0.1-0.1c0-0.1,0-0.2,0-0.3c0-0.2,0-0.4-0.1-0.6c0-0.2-0.1-0.3-0.1-0.5c0,0,0,0,0.1,0c0,0,0-0.1,0-0.1
		c0-0.1,0-0.3,0-0.4c-0.1-0.6-0.3-1.2-0.4-1.8c0-0.1-0.1-1.2-0.2-1.2c0-0.3-0.1-0.4-0.2-0.3c0,0-0.1,0.1-0.1,0.3
		c-0.2,1.5-0.4,2.8-0.7,4.1c0,0.1-0.1,0.3,0,0.4c0,0.2,0.1,0.1,0.2,0c0.1-0.1,0.1-0.1,0.2,0.1c0,0.1,0,0.1,0,0.2
		c-0.2,0-0.4,0.1-0.6,0.2c-0.2,0.1-0.4,0.3-0.6,0.4c-0.1,0.1-0.3,0-0.4,0.1c0,0,0,0-0.1,0c0,0,0,0,0,0c0,0,0,0,0,0
		c-0.1,0.1-0.1,0.3,0,0.3c0,0.1,0.1,0.1,0.1,0.2c0,0.1,0.1,0.1,0.1,0.3c0,0.1,0,0.2-0.1,0.3c0,0-0.1,0.1-0.1,0.1
		c-0.1,0-0.1,0.1-0.2,0.1c0,0-0.1,0.1-0.1,0.1c0.2,0.4,0.6,0.2,1,0.2c0,0,0,0,0.1,0.1c-0.3,0.2-0.6,0.4-0.8,0.4
		c-0.2,0-0.4-0.1-0.5-0.1c0,0-0.1,0-0.1,0.1c0,0,0,0.1,0,0.1c0,0.1,0,0.1,0.1,0.2c0,0.1,0,0.3-0.1,0.4c0,0-0.1,0.1-0.1,0.1
		c-0.3,0.2-0.5,0.4-0.8,0.3c-0.1,0-0.2-0.1-0.3,0c-0.1,0-0.1,0-0.2,0.1c0,0.1-0.1,0.1-0.1,0.2c0.5,0.5,1.1,1,1.6,0.6
		c-0.1,0.3-0.2,0.6-0.2,0.9c0.5-0.1,0.9-0.5,1.3-1c0,0,0.1-0.1,0.1-0.1c0,0,0,0,0.1-0.1c0,0,0.1-0.1,0.1-0.1c0.1,0,0.1,0,0.2,0
		c0.1,0,0.2-0.1,0.3-0.2c0,0.1,0,0.2,0,0.3c-0.1,0.2-0.2,0.3-0.3,0.5c-0.2,0.2-0.3,0.5-0.5,0.7c0,0.1-0.1,0.1-0.1,0.2
		c-0.3,0.4-0.6,0.8-1,1.1c-0.4,0.4-0.8,0.7-1.3,1c-0.1,0-0.2,0.1-0.3,0.2c0,0,0,0,0,0c-0.1,0.1-0.1,0.2-0.1,0.3
		c0,0.1,0.1,0.1,0.1,0.1c0.3,0.2,0.7-0.2,1-0.2c0,0.2,0.2,0.3,0.4,0.2s0.3-0.2,0.4-0.3c0.2-0.1,0.4-0.3,0.5-0.4c0,0,0.1-0.1,0.1,0
		c0.1,0,0.2,0.2,0.3,0.3c0.1,0.1,0.3,0,0.5-0.1c0.1-0.1,0.2-0.2,0.3-0.2c-0.1,0.2-0.2,0.3-0.3,0.5c-0.2,0.2-0.4,0.4-0.6,0.6
		c-0.1,0.1-0.2,0.1-0.2,0.2c0,0.1-0.1,0.1-0.1,0.2c0,0-0.1,0.1-0.1,0.1c-0.5,0.4-1.1,0.8-1.6,1.2c-0.1,0.1-0.2,0.1-0.3,0.2
		c-0.1,0.1-0.1,0.1-0.2,0.2c-0.1,0.1-0.2,0.2-0.2,0.4c-0.1,0.1-0.2,0.3-0.2,0.5c0,0.2,0.1,0.4,0.2,0.4c0.1,0,0.2,0,0.2-0.1
		c0,0,0,0,0.1-0.1c0,0,0,0,0.1-0.1c0,0,0.1-0.1,0.1-0.1c0.1-0.1,0.4-0.2,0.5-0.2c0.2,0.1,0.1,0.5,0.4,0.5c0.1,0,0.2-0.2,0.3-0.2
		c0.2-0.1,0.4,0,0.7,0c0.3,0,0.6-0.3,0.9-0.5c0.1-0.1,0.1-0.1,0.2-0.2c0.1,0,0.1,0,0.2,0c0,0.1,0,0.2-0.1,0.3
		c-0.1,0.1-0.1,0.2-0.2,0.3c-0.5,0.7-1.1,1.2-1.7,1.1c-0.3,0-0.5-0.1-0.8-0.1c0,0-0.1,0-0.1,0.1c0,0,0,0.1-0.1,0.1
		c0,0.1,0.1,0.2,0.1,0.3c0,0.2,0,0.4-0.1,0.5c0,0-0.1,0.1-0.1,0.1c-0.3,0.3-0.7,0.5-1,0.4c-0.1,0-0.2-0.1-0.4-0.1
		c-0.1,0-0.1,0.1-0.2,0.1c-0.1,0.1-0.1,0.3-0.1,0.4c0,0.2,0.3,0.3,0.4,0.4c0.2,0.1,0.3,0.3,0.5,0.4c0.2,0.1,0.4,0.2,0.6,0.2
		c0.1,0,0.4-0.2,0.5,0c0,0.1,0,0.1,0,0.2c0,0.1,0,0.2,0,0.2c0,0.1,0,0.1,0,0.2c0,0.1,0,0.2,0.1,0.2c0.1,0.1,0.3-0.1,0.5-0.2
		c0.2-0.1,0.3-0.2,0.4-0.3c0.1-0.1,0.3-0.2,0.4-0.4c0,0,0,0,0,0c0,0.1,0,0.2-0.1,0.2c0,0-0.1,0.1-0.1,0.1c0,0-0.1,0.1-0.2,0.2
		c0,0,0,0.1-0.1,0.1c0,0.2,0.2,0.2,0.3,0.2c0.2,0,0.3,0,0.4-0.1c0,0,0.1,0,0.1,0c0,0,0.1,0,0.1,0.1c0,0,0,0.1,0,0.1c0,0,0,0,0,0
		c0.1,0,0.2,0,0.2-0.1c0.1-0.2,0.2-0.4,0.3-0.5c0.1-0.2,0.2-0.4,0.4-0.6c0,0.2,0,0.3,0,0.5c0,0.3,0,0.6,0,0.8c0,0,0,0,0,0.1
		c0,0.3,0,0.5-0.1,0.8c0,0.5-0.1,0.6,0.2,0.7c0.1,0,0.1,0,0.2,0c0.1,0,0.2,0,0.3,0c0.1,0,0.3,0,0.4,0c0.1,0,0.1,0,0.2,0
		c0.4,0,0.3-0.2,0.2-0.8c0-0.2-0.1-0.3-0.1-0.5c0,0,0,0,0.1,0s0,0,0.1,0c0,0,0,0,0,0l0,0c0,0,0-0.1,0-0.2c0,0,0-0.1,0-0.1
		c0-0.2-0.1-0.4-0.1-0.7c0,0,0,0.1,0.1,0.1c0.1,0.3,0.2,0.7,0.5,0.9c0.2,0.2,0.4,0.2,0.6,0.4c0.1,0.1,0.1,0.1,0.2,0.2
		c0.1,0.1,0.1,0.1,0.2,0c0,0,0,0,0,0c0,0,0,0,0,0c0,0,0,0,0-0.1c0,0,0-0.1,0.1-0.1c0.1-0.1,0.2-0.2,0.3-0.2c0.1,0,0.3,0.1,0.4-0.1
		c0,0,0-0.1,0.1-0.1c0.1,0.1,0.2,0.3,0.4,0.3c0.1,0.1,0.3,0.1,0.4-0.1c0,0,0,0,0,0c0-0.1,0.1-0.2,0.1-0.3c0-0.3-0.1-0.6-0.3-0.9
		c0.2,0.1,0.3,0.1,0.4,0c0,0,0,0,0-0.1c0-0.1,0-0.3-0.1-0.4c0-0.1,0-0.2,0.1-0.2c0,0,0,0,0,0c0.1,0.1,0.2,0.1,0.3,0.1
		c0,0,0.1,0,0.1-0.1c0,0,0.1-0.1,0.1-0.2c0.1-0.5-0.3-1-0.5-1.4c0-0.1-0.1-0.1-0.1-0.2c0,0,0-0.1,0-0.1c0.1-0.1,0.2-0.1,0.3-0.1
		c0.2,0,0.3,0,0.4-0.1c0,0,0,0,0,0C582.1,433.4,582,433.2,581.9,433L581.9,433z M578.4,431.4c-0.1-0.1-0.2-0.1-0.2-0.2
		c0,0,0-0.1-0.1-0.1c0-0.1-0.1-0.2-0.1-0.3c0-0.1-0.1-0.3-0.1-0.5c0,0.1,0.1,0.2,0.1,0.3c0.2,0.4,0.4,0.7,0.6,1
		C578.5,431.5,578.4,431.5,578.4,431.4L578.4,431.4z M577.4,421.6c0-0.2,0-0.3,0-0.5c0.1,0.2,0.2,0.4,0.3,0.5
		c0.1,0.1,0.1,0.2,0.2,0.2c0.1,0,0.1,0.1,0.2,0.1c0.1,0.1,0.1,0.2,0.2,0.3c0,0-0.1,0-0.1-0.1c-0.2-0.1-0.3-0.2-0.5-0.4
		C577.7,421.8,577.6,421.7,577.4,421.6C577.5,421.6,577.5,421.6,577.4,421.6L577.4,421.6z M576.9,421.1
		C576.9,421.2,576.9,421.2,576.9,421.1l0,0.1c-0.2,0.4-0.4,0.7-0.7,1c0,0,0,0,0,0c0-0.1,0.1-0.1,0.1-0.2
		C576.5,421.7,576.7,421.4,576.9,421.1C576.9,421.1,576.9,421.1,576.9,421.1L576.9,421.1z M580.6,435.7
		C580.6,435.7,580.6,435.7,580.6,435.7c-0.7-0.1-1.4-0.5-1.8-1.2c0-0.1-0.1-0.1-0.1-0.2c0.4,0.5,0.9,0.9,1.5,1.1
		c0.1,0,0.2,0.1,0.3,0.1C580.5,435.6,580.5,435.7,580.6,435.7L580.6,435.7z"/>
	<polyline class="st0" points="735.6,508.1 735.6,531.7 647.9,589 560.3,531.7 560.3,509.1 	"/>
	<polyline class="st0" points="560.3,443.7 560.3,417.1 647.9,359.7 735.6,417.1 735.6,443.7 	"/>
	<polyline class="st0" points="550,443.7 560.3,443.7 750.8,443.7 	"/>
	<path class="st0" d="M550,511.2c26.1-5.7,59.2-10.7,97.7-10.9c40.9-0.2,75.9,4.9,103.1,10.9"/>
	<text transform="matrix(1 0 0 1 599.2803 475.4531)" class="st1 st2">V.E.T.S</text>
	<text transform="matrix(0.9814 -0.1918 0.1918 0.9814 558.6734 498.4688)" class="st3 st4">V</text>
	<text transform="matrix(0.9833 -0.1821 0.1821 0.9833 563.2006 497.5836)" class="st3 st4">e</text>
	<text transform="matrix(0.985 -0.1723 0.1723 0.985 567.7407 496.7443)" class="st3 st4">t</text>
	<text transform="matrix(0.9867 -0.1626 0.1626 0.9867 572.2892 495.9466)" class="st3 st4">e</text>
	<text transform="matrix(0.9883 -0.1528 0.1528 0.9883 576.8423 495.1966)" class="st3 st4">r</text>
	<text transform="matrix(0.9897 -0.143 0.143 0.9897 581.4037 494.4915)" class="st3 st4">a</text>
	<text transform="matrix(0.9911 -0.1333 0.1333 0.9911 585.9717 493.8322)" class="st3 st4">n</text>
	<text transform="matrix(0.9924 -0.1234 0.1234 0.9924 590.5505 493.2151)" class="st3 st4">’</text>
	<text transform="matrix(0.9935 -0.1136 0.1136 0.9935 595.128 492.645)" class="st3 st4">s</text>
	<text transform="matrix(0.9956 -9.393455e-02 9.393455e-02 0.9956 604.3079 491.6421)" class="st3 st4">E</text>
	<text transform="matrix(0.9965 -8.402568e-02 8.402568e-02 0.9965 608.9043 491.2102)" class="st3 st4">x</text>
	<text transform="matrix(0.9973 -7.410849e-02 7.410849e-02 0.9973 613.5049 490.8201)" class="st3 st4">p</text>
	<text transform="matrix(0.9979 -6.435814e-02 6.435814e-02 0.9979 618.1069 490.4794)" class="st3 st4">l</text>
	<text transform="matrix(0.9985 -5.442736e-02 5.442736e-02 0.9985 622.7133 490.1811)" class="st3 st4">o</text>
	<text transform="matrix(0.999 -4.449121e-02 4.449121e-02 0.999 627.3242 489.9308)" class="st3 st4">r</text>
	<text transform="matrix(0.9994 -3.455064e-02 3.455064e-02 0.9994 631.9399 489.7252)" class="st3 st4">i</text>
	<text transform="matrix(0.9997 -2.478114e-02 2.478114e-02 0.9997 636.5508 489.5642)" class="st3 st4">n</text>
	<text transform="matrix(0.9999 -1.483476e-02 1.483476e-02 0.9999 641.1676 489.4503)" class="st3 st4">g</text>
	<text transform="matrix(1 5.061434e-03 -5.061434e-03 1 650.3983 489.361)" class="st3 st4">T</text>
	<text transform="matrix(0.9999 1.483476e-02 -1.483476e-02 0.9999 655.0176 489.3823)" class="st3 st4">h</text>
	<text transform="matrix(0.9997 2.478114e-02 -2.478114e-02 0.9997 659.6287 489.4509)" class="st3 st4">e</text>
	<text transform="matrix(0.999 4.466556e-02 -4.466556e-02 0.999 668.8607 489.727)" class="st3 st4">S</text>
	<text transform="matrix(0.9985 5.442736e-02 -5.442736e-02 0.9985 673.4699 489.9328)" class="st3 st4">m</text>
	<text transform="matrix(0.9979 6.435814e-02 -6.435814e-02 0.9979 678.0805 490.1833)" class="st3 st4">o</text>
	<text transform="matrix(0.9972 7.428255e-02 -7.428255e-02 0.9972 682.6868 490.4809)" class="st3 st4">k</text>
	<text transform="matrix(0.9964 8.419959e-02 -8.419959e-02 0.9964 687.2958 490.8237)" class="st3 st4">i</text>
	<text transform="matrix(0.9956 9.393455e-02 -9.393455e-02 0.9956 691.8937 491.2114)" class="st3 st4">e</text>
	<text transform="matrix(0.9946 0.1038 -0.1038 0.9946 696.4896 491.6467)" class="st3 st4">s</text>
	<text transform="matrix(0.9923 0.1236 -0.1236 0.9923 705.6688 492.6512)" class="st3 st4">T</text>
	<text transform="matrix(0.9911 0.1333 -0.1333 0.9911 710.2476 493.2212)" class="st3 st4">o</text>
	<text transform="matrix(0.9897 0.1431 -0.1431 0.9897 714.8234 493.8365)" class="st3 st4">g</text>
	<text transform="matrix(0.9882 0.153 -0.153 0.9882 719.3911 494.496)" class="st3 st4">e</text>
	<text transform="matrix(0.9867 0.1626 -0.1626 0.9867 723.9534 495.2009)" class="st3 st4">t</text>
	<text transform="matrix(0.985 0.1724 -0.1724 0.985 728.506 495.9528)" class="st3 st4">h</text>
	<text transform="matrix(0.9833 0.1822 -0.1822 0.9833 733.059 496.7501)" class="st3 st4">e</text>
	<text transform="matrix(0.9814 0.1918 -0.1918 0.9814 737.5952 497.5899)" class="st3 st4">r</text>
	<polyline class="st5" points="613.9,410.2 631.1,397.5 631.1,397.5 	"/>
	<path class="st5" d="M641.5,389.1c1.3-1.2,2.6-2.4,3.9-3.6c0.6-0.6,1.2-1.1,1.7-1.7c0.9,1.3,1.4,1.5,1.8,1.4c0.4-0.1,0.6-0.6,1-0.5
		c0.5,0,0.6,0.7,1.1,1.3c0.7,0.9,1.7,0.9,2.6,1.3c1.6,0.7,2.2,2.5,2.8,3.6c0.9,1.6,2.7,3.7,6.9,5.5l19.6,14.5l12.2,9l0,0l32.3,23.9
		H568.6"/>
	<polyline class="st5" points="622,443.3 621.7,443.7 643.3,443.7 647.9,443.7 652.7,443.7 715.8,443.7 	"/>
	<path class="st5" d="M694.9,419.8L694.9,419.8L694.9,419.8L694.9,419.8l-9.8-11.2c1.6-1.1,1.9-1.6,1.8-1.9c-0.3-0.9-4,0.4-6.2-1.7
		c-1-0.9-0.6-1.5-1.7-2.1c-1.3-0.8-2.3-0.3-3.9-1.3c-0.8-0.5-0.7-0.7-1.5-1.3c-1.5-1.1-3.2-1.2-3.6-1.3c-1.5-0.2-3.9-1.9-7.5-8.1
		c-2,0.9-4,1.9-6,2.8"/>
	<path class="st5" d="M604.4,407c-0.8-0.8-1.7-1.6-2.5-2.5c-0.9,0.6-2.4,1.5-4.1,2.8c-4,3.1-4.7,5-8.4,8.4c-3,2.7-6.9,5.1-6.9,5.1
		l0,0c0,0-1.7,1.2-2.4,1.7c-2.8,2.1-4,4.8-6.2,7.1c-0.2,0.2-0.6,0.6-1.2,1.1c-0.6,0.5-1.1,0.8-1.6,1.1c-2.1,1.2-5.4,4.2-10.9,11.9
		c0,0,0,0-0.1,0.1h83c0,0-0.5-0.4-0.5-0.4C630,431.2,617.2,419.1,604.4,407z"/>
	<path class="st5" d="M648.3,443.3l-0.5,0.4h79.3c2.8-0.3,5.6-0.6,8.4-0.9c-3.2-1.4-7-3.1-11.4-5.1c-5-2.3-7.2-3.4-9.9-5.6
		c-2.2-1.8-4-3.7-4.3-4.1c-1.6-1.8-2.9-3.6-3.9-4.9c-2-2.8-1.6-2.7-2.4-3.4c-2.3-2.2-3.9-1.3-7.1-3.4c-1.9-1.3-3.1-2.9-3.9-3.9
		c0,0-0.6-0.8-3-4.7l0,0c-1.7-1.9-3.7-2.2-4.5-1.5c-0.7,0.6-0.4,2.1-0.3,2.4"/>
	<line class="st0" x1="652.2" y1="443.3" x2="648.3" y2="443.3"/>
	<path class="st5" d="M644.9,389.5c-0.8-0.3-1.6-0.7-2.6-1.3c-0.8-0.5-1.5-1-2.1-1.5c-0.4,0.5-1.1,1.3-1.9,2.1
		c-2.3,2.4-3.3,3.1-4.7,4.7c-0.7,0.8-1.6,2.1-2.5,3.9c0,0,0,0,0,0"/>
	<path class="st5" d="M604.2,405.8c1-0.6,2-1.3,3-1.9c1.5,0.4,2.2,1.1,2.6,1.7c0.4,0.7,0.3,1.2,0.9,1.7c0.7,0.6,1.5,0.5,2.4,0.6
		c0.9,0.2,2.1,0.7,3.4,2.4l1.3,3.3l17.3,14.9l15.2,13.1l2,1.7l0.5,0.4h-90.9"/>
	<polyline class="st6" points="560.3,466 559.9,444.4 559.9,444 559.8,443.6 559.8,441.5 559.8,441.2 559.8,440.7 559.8,440.6 
		559.8,438.7 559.7,438.4 559.7,438.2 559.7,437.9 559.7,437.6 559.7,437.5 559.7,436.1 559.7,435.3 559.7,433.7 559.6,432.7 
		559.6,431.2 559.6,430.7 559.6,429.6 559.6,429.4 559.6,428.8 558.8,388.9 	"/>
	<path d="M564.6,438.7c-0.1-0.1-0.2-0.1-0.3-0.1c-0.3-0.1-0.7,0.1-0.9-0.2c0,0-0.1-0.1-0.1-0.1c0.1,0,0.1,0,0.2,0.1c0,0,0,0,0.1,0
		c0,0,0.1-0.1,0.1-0.1c0.1,0,0.1,0,0.2,0.1c0,0,0.1,0,0.2,0c0,0,0,0,0-0.1c0,0,0-0.1,0-0.1c0,0,0,0,0,0c0.1,0,0.2,0.1,0.4,0.1
		c0,0,0.1,0,0.1,0c0,0,0,0,0,0c0,0,0-0.1,0-0.1c0-0.1-0.1-0.2-0.2-0.3c0,0,0,0-0.1-0.1c-0.1-0.1,0-0.4,0-0.5c0-0.1-0.1-0.1-0.2-0.1
		c-0.1,0-0.2,0-0.3-0.1c-0.1-0.1-0.1-0.2-0.2-0.2c-0.2-0.1-0.7-0.4-0.7-0.4c-0.1-0.1-0.2-0.2-0.3-0.3c0,0,0,0,0.1,0
		c0,0,0,0.1,0.1,0.1c0,0,0.1,0,0.1-0.1c0,0.1,0.1,0.2,0.1,0.2c0.1,0.1,0.2,0.1,0.3,0.2c0,0,0.1,0.1,0.1,0.1c0,0,0.1,0,0.1,0
		c0,0,0,0,0,0l0,0c0,0,0,0,0,0c0,0,0,0,0-0.1c0,0,0.1-0.1,0.2-0.1c0.1,0,0.1,0,0.2,0c0,0,0,0,0-0.1c0.1,0.1,0.1,0.1,0.2,0.2
		c0.1,0,0.1,0,0.2,0c0,0,0,0,0,0c0,0,0-0.1,0-0.2c0-0.2-0.1-0.3-0.2-0.4c0.1,0,0.2,0,0.2,0c0,0,0,0,0,0c0-0.1,0-0.2-0.1-0.3
		c-0.1-0.1-0.2-0.1-0.2-0.1c-0.3,0-0.6-0.3-0.9-0.6c-0.1-0.2-0.2-0.4-0.4-0.6c0,0,0,0,0,0c0-0.1,0-0.1,0-0.2c0-0.1,0-0.1,0-0.2
		c0,0,0,0,0,0.1c0.1,0.1,0.1,0.2,0.2,0.3c0.1,0.2,0.3,0.3,0.5,0.4c0,0,0.1,0,0.1,0c0.1,0,0.1,0.1,0.2,0.2c0,0,0,0,0,0c0,0,0,0,0,0
		c0,0,0-0.1,0-0.1c0,0,0,0,0,0c0,0,0.1,0,0.1,0c0,0,0,0,0,0c0,0,0,0,0-0.1c0-0.2-0.1-0.4-0.2-0.5c0,0,0,0,0-0.1c0,0,0,0,0,0
		c0,0,0.1,0,0.1,0c0.1,0,0.1,0,0.2,0c0,0,0,0,0,0c0-0.1,0-0.2,0-0.2c-0.1,0-0.1-0.1-0.2-0.1c-0.2-0.1-0.5,0.1-0.6-0.1
		c0-0.1-0.1-0.1-0.1-0.1c0,0,0,0,0,0c0,0,0,0,0,0c0,0,0,0,0,0c0,0,0-0.1,0-0.1c0.1,0.2,0.3,0.3,0.4,0.3c0,0,0.1,0,0.1,0c0,0,0,0,0,0
		c0-0.1,0-0.1-0.1-0.2c0,0-0.1-0.1-0.1-0.2c0,0,0,0,0,0c0,0,0,0,0.1,0c0,0,0.1,0,0.1-0.1c0,0,0.1-0.1,0.1-0.2c0,0,0-0.1,0-0.1
		c0-0.1-0.1-0.1-0.1-0.1s-0.1,0-0.1,0.1c-0.1,0.1-0.1,0.1-0.2,0.1c-0.1,0-0.1-0.1-0.2-0.1c-0.1-0.1-0.3-0.2-0.4-0.4c0,0,0,0,0,0
		c0,0,0-0.1,0-0.1c0-0.1,0-0.2,0-0.3c0-0.1,0-0.2,0-0.3c0,0,0,0,0,0c0,0,0,0,0-0.1c0-0.1,0-0.2,0-0.2c-0.1-0.3-0.1-0.6-0.2-0.9
		c0-0.1-0.1-0.6-0.1-0.6c0-0.2-0.1-0.2-0.1-0.1c0,0,0,0.1,0,0.2c-0.1,0.7-0.2,1.4-0.3,2.1c0,0.1,0,0.1,0,0.2c0,0.1,0.1,0.1,0.1,0
		s0.1,0,0.1,0c0,0,0,0.1,0,0.1c-0.1,0-0.2,0-0.3,0.1c-0.1,0.1-0.2,0.2-0.3,0.2c-0.1,0-0.1,0-0.2,0c0,0,0,0,0,0c0,0,0,0,0,0
		c0,0,0,0,0,0c0,0,0,0.1,0,0.2s0,0.1,0.1,0.1c0,0,0,0.1,0,0.1c0,0.1,0,0.1,0,0.1c0,0,0,0,0,0c0,0-0.1,0-0.1,0.1c0,0,0,0,0,0.1
		c0.1,0.2,0.3,0.1,0.5,0.1c0,0,0,0,0,0c-0.1,0.1-0.3,0.2-0.4,0.2c-0.1,0-0.2-0.1-0.3,0c0,0,0,0,0,0c0,0,0,0,0,0c0,0,0,0.1,0,0.1
		c0,0.1,0,0.1,0,0.2c0,0,0,0,0,0c-0.1,0.1-0.2,0.2-0.4,0.2c0,0-0.1,0-0.1,0c0,0-0.1,0-0.1,0.1c0,0,0,0.1-0.1,0.1
		c0.2,0.3,0.5,0.5,0.8,0.3c0,0.1-0.1,0.3-0.1,0.4c0.2-0.1,0.4-0.2,0.6-0.5c0,0,0,0,0-0.1c0,0,0,0,0,0c0,0,0,0,0,0c0,0,0.1,0,0.1,0
		c0,0,0.1-0.1,0.1-0.1c0,0,0,0.1,0,0.1c0,0.1-0.1,0.2-0.1,0.2c-0.1,0.1-0.2,0.2-0.2,0.3c0,0,0,0.1-0.1,0.1c-0.1,0.2-0.3,0.4-0.5,0.6
		c-0.2,0.2-0.4,0.4-0.6,0.5c0,0-0.1,0-0.1,0.1c0,0,0,0,0,0c0,0-0.1,0.1,0,0.1c0,0,0,0.1,0.1,0.1c0.1,0.1,0.3-0.1,0.5-0.1
		c0,0.1,0.1,0.1,0.2,0.1c0.1,0,0.1-0.1,0.2-0.1c0.1-0.1,0.2-0.1,0.3-0.2c0,0,0,0,0.1,0c0.1,0,0.1,0.1,0.1,0.2c0.1,0.1,0.2,0,0.2-0.1
		c0,0,0.1-0.1,0.1-0.1c0,0.1-0.1,0.2-0.1,0.2c-0.1,0.1-0.2,0.2-0.3,0.3c0,0-0.1,0.1-0.1,0.1c0,0,0,0.1,0,0.1c0,0,0,0-0.1,0.1
		c-0.3,0.2-0.5,0.4-0.8,0.6c0,0-0.1,0.1-0.1,0.1c0,0-0.1,0.1-0.1,0.1c0,0.1-0.1,0.1-0.1,0.2c0,0.1-0.1,0.1-0.1,0.2s0,0.2,0.1,0.2
		c0,0,0.1,0,0.1-0.1c0,0,0,0,0,0c0,0,0,0,0,0c0,0,0,0,0,0c0.1-0.1,0.2-0.1,0.2-0.1c0.1,0,0.1,0.2,0.2,0.2c0.1,0,0.1-0.1,0.2-0.1
		c0.1-0.1,0.2,0,0.3,0c0.2,0,0.3-0.1,0.4-0.3c0,0,0.1-0.1,0.1-0.1c0,0,0.1,0,0.1,0c0,0.1,0,0.1,0,0.2c0,0.1-0.1,0.1-0.1,0.1
		c-0.3,0.4-0.5,0.6-0.8,0.6c-0.1,0-0.2-0.1-0.4,0c0,0,0,0-0.1,0c0,0,0,0,0,0.1c0,0.1,0,0.1,0,0.2c0,0.1,0,0.2-0.1,0.3
		c0,0,0,0-0.1,0.1c-0.2,0.1-0.3,0.3-0.5,0.2c-0.1,0-0.1,0-0.2,0c0,0-0.1,0-0.1,0.1c0,0-0.1,0.1,0,0.2c0,0.1,0.1,0.1,0.2,0.2
		c0.1,0.1,0.2,0.1,0.3,0.2c0.1,0,0.2,0.1,0.3,0.1c0.1,0,0.2-0.1,0.2,0c0,0,0,0.1,0,0.1s0,0.1,0,0.1s0,0.1,0,0.1c0,0,0,0.1,0,0.1
		c0.1,0,0.2,0,0.2-0.1c0.1,0,0.1-0.1,0.2-0.2c0.1-0.1,0.1-0.1,0.2-0.2l0,0c0,0.1,0,0.1,0,0.1c0,0,0,0,0,0c0,0-0.1,0.1-0.1,0.1
		c0,0,0,0,0,0.1c0,0.1,0.1,0.1,0.2,0.1c0.1,0,0.1,0,0.2,0c0,0,0,0,0,0c0,0,0,0,0,0c0,0,0,0,0,0.1c0,0,0,0,0,0c0,0,0.1,0,0.1-0.1
		c0.1-0.1,0.1-0.2,0.1-0.3c0.1-0.1,0.1-0.2,0.2-0.3c0,0.1,0,0.2,0,0.3c0,0.1,0,0.3,0,0.4c0,0,0,0,0,0c0,0.1,0,0.3,0,0.4
		c0,0.2,0,0.3,0.1,0.4c0,0,0.1,0,0.1,0c0.1,0,0.1,0,0.2,0c0.1,0,0.1,0,0.2,0c0,0,0,0,0.1,0c0.2,0,0.1-0.1,0.1-0.4c0-0.1,0-0.2,0-0.3
		c0,0,0,0,0,0s0,0,0,0c0,0,0,0,0,0l0,0c0,0,0-0.1,0-0.1c0,0,0,0,0,0c0-0.1,0-0.2-0.1-0.3c0,0,0,0,0,0.1c0.1,0.2,0.1,0.3,0.2,0.4
		c0.1,0.1,0.2,0.1,0.3,0.2c0,0,0.1,0.1,0.1,0.1c0,0,0.1,0,0.1,0c0,0,0,0,0,0l0,0c0,0,0,0,0,0c0,0,0,0,0-0.1c0,0,0.1-0.1,0.2-0.1
		c0.1,0,0.1,0,0.2,0c0,0,0,0,0-0.1c0.1,0.1,0.1,0.1,0.2,0.2c0.1,0,0.1,0,0.2,0c0,0,0,0,0,0c0,0,0-0.1,0-0.2c0-0.2-0.1-0.3-0.2-0.4
		c0.1,0,0.2,0,0.2,0c0,0,0,0,0,0c0-0.1,0-0.1,0-0.2c0,0,0-0.1,0-0.1c0,0,0,0,0,0c0,0,0.1,0.1,0.2,0c0,0,0,0,0,0c0,0,0-0.1,0-0.1
		c0-0.2-0.2-0.5-0.3-0.7c0,0,0-0.1,0-0.1c0,0,0,0,0-0.1c0,0,0.1-0.1,0.1-0.1c0.1,0,0.2,0,0.2,0c0,0,0,0,0,0
		C564.8,438.9,564.7,438.8,564.6,438.7L564.6,438.7z M562.9,437.9c0,0-0.1-0.1-0.1-0.1c0,0,0,0,0-0.1c0-0.1,0-0.1-0.1-0.2
		c0,0,0-0.1-0.1-0.3c0,0,0,0.1,0.1,0.1C562.8,437.7,562.9,437.9,562.9,437.9C563,438,563,438,562.9,437.9L562.9,437.9z M562.5,433
		c0-0.1,0-0.2,0-0.2c0,0.1,0.1,0.2,0.1,0.3c0,0,0.1,0.1,0.1,0.1c0,0,0.1,0,0.1,0.1c0,0,0.1,0.1,0.1,0.1c0,0,0,0,0,0
		c-0.1-0.1-0.2-0.1-0.2-0.2C562.6,433.1,562.6,433.1,562.5,433C562.5,433,562.5,433,562.5,433L562.5,433z M562.3,432.8
		C562.3,432.8,562.3,432.8,562.3,432.8L562.3,432.8c-0.1,0.3-0.2,0.4-0.3,0.6c0,0,0,0,0,0c0,0,0-0.1,0-0.1
		C562,433.1,562.2,433,562.3,432.8C562.3,432.8,562.3,432.8,562.3,432.8L562.3,432.8z M564,440.1C564,440.1,564,440.1,564,440.1
		c-0.3,0-0.7-0.3-0.9-0.6c0,0,0-0.1-0.1-0.1c0.2,0.2,0.4,0.4,0.7,0.5C563.8,439.9,563.9,440,564,440.1C564,440,564,440,564,440.1
		L564,440.1z"/>
	<path d="M568.6,438.9c-0.1-0.1-0.2-0.1-0.4-0.2c-0.4-0.2-1,0.1-1.2-0.3c0-0.1-0.1-0.1-0.1-0.2c0.1,0,0.2,0,0.3,0.1c0,0,0.1,0,0.1,0
		c0,0,0.1-0.1,0.1-0.1c0.1-0.1,0.2,0.1,0.3,0.1c0.1,0.1,0.2,0.1,0.2,0c0,0,0-0.1,0-0.1c0-0.1,0-0.1,0-0.2c0,0,0,0,0.1,0
		c0.2,0.1,0.3,0.1,0.5,0.2c0,0,0.1,0,0.1,0c0,0,0,0,0,0c0-0.1,0-0.1,0-0.2c-0.1-0.2-0.1-0.3-0.2-0.4c0,0-0.1-0.1-0.1-0.1
		c-0.1-0.2,0-0.5,0-0.8c-0.1-0.2-0.2-0.1-0.3-0.1c-0.1,0-0.3,0-0.4-0.1c-0.1-0.1-0.2-0.2-0.3-0.3c-0.3-0.1-0.9-0.7-0.9-0.7
		c-0.1-0.2-0.3-0.3-0.4-0.5c0,0,0.1,0,0.1,0c0,0,0.1,0.1,0.1,0.1c0.1,0,0.1,0,0.2-0.1c0.1,0.1,0.1,0.3,0.2,0.4
		c0.1,0.1,0.3,0.1,0.4,0.3c0,0,0.1,0.1,0.1,0.1c0,0,0.1,0.1,0.1,0c0,0,0,0,0,0l0,0c0,0,0,0,0-0.1c0,0,0-0.1,0-0.1
		c0.1-0.1,0.1-0.1,0.2-0.1c0.1,0,0.2,0,0.2,0c0,0,0-0.1,0-0.1c0.1,0.1,0.2,0.2,0.2,0.2c0.1,0,0.2,0,0.2,0c0,0,0,0,0,0
		c0-0.1,0-0.1,0-0.2c0-0.2-0.1-0.5-0.2-0.6c0.1,0,0.2,0.1,0.3,0c0,0,0,0,0,0c0-0.1,0-0.3-0.1-0.4c-0.1-0.1-0.2-0.1-0.3-0.1
		c-0.4-0.1-0.9-0.4-1.2-0.9c-0.2-0.3-0.3-0.7-0.5-1c0,0,0,0,0,0c0-0.1,0-0.2,0-0.3c0-0.1,0-0.2,0-0.2c0,0,0,0.1,0,0.1
		c0.1,0.2,0.2,0.3,0.3,0.5c0.2,0.3,0.4,0.5,0.7,0.6c0,0,0.1,0,0.1,0.1c0.1,0.1,0.2,0.2,0.2,0.3c0,0,0,0,0.1,0c0,0,0,0,0,0
		c0,0,0-0.1,0-0.2c0,0,0,0,0,0c0,0,0.1,0.1,0.2,0c0,0,0,0,0,0c0,0,0-0.1,0-0.1c0-0.2-0.1-0.5-0.2-0.8c0,0,0-0.1,0-0.1c0,0,0,0,0-0.1
		c0,0,0.1-0.1,0.1-0.1c0.1,0,0.2,0,0.2,0c0,0,0,0,0,0c0.1-0.1,0-0.2-0.1-0.3c-0.1-0.1-0.2-0.1-0.3-0.1c-0.3-0.1-0.7,0.1-0.9-0.2
		c0-0.1-0.1-0.1-0.2-0.2c0,0,0,0,0,0c0,0,0,0,0,0c0,0,0,0,0,0c0,0,0-0.1,0-0.1c0.1,0.3,0.3,0.4,0.5,0.4c0,0,0.1,0,0.1-0.1
		c0,0,0,0,0-0.1c0-0.1,0-0.2-0.1-0.3c-0.1-0.1-0.1-0.2-0.1-0.3c0,0,0,0,0,0c0,0,0.1,0,0.1-0.1c0,0,0.1-0.1,0.1-0.1
		c0.1-0.1,0.1-0.2,0.1-0.3c0,0,0-0.1,0-0.1c0-0.1-0.1-0.1-0.1-0.1c0,0-0.1,0.1-0.1,0.1c-0.1,0.1-0.2,0.1-0.2,0.1
		c-0.1,0-0.1-0.1-0.2-0.1c-0.2-0.2-0.4-0.4-0.5-0.5c0,0,0,0-0.1-0.1c0-0.1,0-0.1,0-0.2c0-0.2,0-0.3-0.1-0.4c0-0.1,0-0.2,0-0.4
		c0,0,0,0,0,0c0,0,0-0.1,0-0.1c0-0.1,0-0.2,0-0.3c-0.1-0.4-0.2-0.9-0.2-1.3c0-0.1-0.1-0.9-0.1-0.9c0-0.2-0.1-0.3-0.1-0.2
		c0,0-0.1,0.1-0.1,0.2c-0.1,1.1-0.3,2.1-0.5,3.1c0,0.1,0,0.2,0,0.3c0,0.1,0.1,0.1,0.1,0c0,0,0.1-0.1,0.1,0.1c0,0,0,0.1,0,0.1
		c-0.1,0-0.3,0.1-0.4,0.2c-0.1,0.1-0.2,0.2-0.4,0.3c-0.1,0-0.2,0-0.3,0.1c0,0,0,0,0,0c0,0,0,0,0,0c0,0,0,0,0,0c0,0.1,0,0.2,0,0.3
		c0,0.1,0.1,0.1,0.1,0.1c0,0,0.1,0.1,0,0.2c0,0.1,0,0.1-0.1,0.2c0,0,0,0-0.1,0.1c0,0-0.1,0.1-0.1,0.1c0,0,0,0.1-0.1,0.1
		c0.2,0.3,0.4,0.1,0.6,0.2c0,0,0,0,0,0.1c-0.2,0.2-0.4,0.3-0.5,0.3c-0.1,0-0.2-0.1-0.4,0c0,0,0,0-0.1,0c0,0,0,0,0,0.1
		c0,0.1,0,0.1,0,0.2c0,0.1,0,0.2-0.1,0.3c0,0,0,0-0.1,0.1c-0.2,0.1-0.3,0.3-0.5,0.2c-0.1,0-0.1,0-0.2,0c0,0-0.1,0-0.1,0.1
		c0,0-0.1,0.1-0.1,0.2c0.3,0.4,0.7,0.8,1.1,0.4c-0.1,0.2-0.1,0.4-0.1,0.7c0.3-0.1,0.6-0.3,0.9-0.7c0,0,0-0.1,0.1-0.1c0,0,0,0,0-0.1
		c0,0,0-0.1,0.1-0.1c0,0,0.1,0,0.1,0c0.1,0,0.1-0.1,0.2-0.2c0,0.1,0,0.1,0,0.2c-0.1,0.1-0.1,0.2-0.2,0.3c-0.1,0.2-0.2,0.3-0.3,0.5
		c0,0-0.1,0.1-0.1,0.1c-0.2,0.3-0.4,0.6-0.6,0.8c-0.3,0.3-0.5,0.5-0.9,0.7c-0.1,0-0.1,0.1-0.2,0.1c0,0,0,0,0,0c0,0.1-0.1,0.1,0,0.2
		c0,0,0,0.1,0.1,0.1c0.2,0.1,0.4-0.2,0.7-0.1c0,0.1,0.1,0.2,0.3,0.2c0.1,0,0.2-0.1,0.3-0.2c0.1-0.1,0.2-0.2,0.4-0.3c0,0,0.1,0,0.1,0
		c0.1,0,0.1,0.2,0.2,0.2c0.1,0.1,0.2,0,0.3-0.1c0.1-0.1,0.1-0.1,0.2-0.2c-0.1,0.1-0.1,0.2-0.2,0.4c-0.1,0.2-0.2,0.3-0.4,0.4
		c0,0-0.1,0.1-0.1,0.1c0,0-0.1,0.1-0.1,0.2c0,0-0.1,0.1-0.1,0.1c-0.3,0.3-0.7,0.6-1.1,0.9c-0.1,0-0.1,0.1-0.2,0.1
		c0,0-0.1,0.1-0.1,0.1c-0.1,0.1-0.1,0.2-0.2,0.3c-0.1,0.1-0.1,0.2-0.1,0.3c0,0.1,0,0.3,0.1,0.3c0.1,0,0.1,0,0.2-0.1c0,0,0,0,0-0.1
		c0,0,0,0,0-0.1c0,0,0-0.1,0.1-0.1c0.1-0.1,0.2-0.2,0.3-0.1c0.1,0,0.1,0.4,0.2,0.3c0.1,0,0.1-0.1,0.2-0.2c0.1-0.1,0.3,0,0.4,0
		c0.2,0,0.4-0.2,0.6-0.4c0,0,0.1-0.1,0.1-0.1c0,0,0.1,0,0.1,0c0,0.1,0,0.2,0,0.3c0,0.1-0.1,0.1-0.1,0.2c-0.4,0.5-0.7,0.9-1.1,0.8
		c-0.2,0-0.3-0.1-0.5-0.1c0,0-0.1,0-0.1,0.1c0,0,0,0.1,0,0.1c0,0.1,0,0.1,0.1,0.2c0,0.1,0,0.3-0.1,0.4c0,0-0.1,0.1-0.1,0.1
		c-0.2,0.2-0.5,0.4-0.7,0.3c-0.1,0-0.2-0.1-0.2-0.1c-0.1,0-0.1,0-0.1,0.1c-0.1,0.1-0.1,0.2,0,0.3c0,0.1,0.2,0.2,0.3,0.3
		c0.1,0.1,0.2,0.2,0.4,0.3c0.1,0.1,0.2,0.1,0.4,0.1c0.1,0,0.3-0.1,0.3,0c0,0,0,0.1,0,0.2c0,0.1,0,0.1,0,0.2c0,0.1,0,0.1,0,0.2
		c0,0.1,0,0.1,0.1,0.2c0.1,0.1,0.2-0.1,0.3-0.1c0.1-0.1,0.2-0.1,0.3-0.2c0.1-0.1,0.2-0.2,0.3-0.3c0,0,0,0,0,0c0,0.1,0,0.1-0.1,0.2
		c0,0,0,0-0.1,0.1c0,0-0.1,0.1-0.1,0.1c0,0,0,0.1,0,0.1c0,0.1,0.2,0.2,0.2,0.2c0.1,0,0.2,0,0.3,0c0,0,0,0,0.1,0c0,0,0,0,0,0
		c0,0,0,0.1,0,0.1c0,0,0,0,0,0c0,0,0.1,0,0.1-0.1c0.1-0.1,0.1-0.3,0.2-0.4c0.1-0.2,0.2-0.3,0.2-0.5c0,0.1,0,0.3,0,0.4
		c0,0.2,0,0.4,0,0.6c0,0,0,0,0,0c0,0.2,0,0.4,0,0.6c0,0.4-0.1,0.5,0.1,0.5c0,0,0.1,0,0.1,0c0.1,0,0.2,0,0.2,0c0.1,0,0.2,0,0.3,0
		c0,0,0.1,0,0.1,0c0.3,0,0.2-0.2,0.1-0.6c0-0.1,0-0.3,0-0.4c0,0,0,0,0,0c0,0,0,0,0,0c0,0,0,0,0,0l0,0c0,0,0-0.1,0-0.1c0,0,0,0,0-0.1
		c0-0.2,0-0.3-0.1-0.5c0,0,0,0.1,0,0.1c0.1,0.2,0.2,0.5,0.3,0.7c0.1,0.1,0.3,0.1,0.4,0.3c0,0,0.1,0.1,0.1,0.1c0,0,0.1,0.1,0.1,0
		c0,0,0,0,0,0l0,0c0,0,0,0,0-0.1c0,0,0-0.1,0-0.1c0.1-0.1,0.1-0.1,0.2-0.1c0.1,0,0.2,0,0.2,0c0,0,0-0.1,0-0.1
		c0.1,0.1,0.2,0.2,0.2,0.2c0.1,0,0.2,0,0.2,0c0,0,0,0,0,0c0-0.1,0-0.1,0-0.2c0-0.2-0.1-0.5-0.2-0.6c0.1,0,0.2,0.1,0.3,0c0,0,0,0,0,0
		c0-0.1,0-0.2,0-0.3c0-0.1,0-0.1,0-0.2c0,0,0,0,0,0c0.1,0.1,0.2,0.1,0.2,0.1c0,0,0,0,0.1-0.1c0,0,0-0.1,0-0.1
		c0.1-0.3-0.2-0.8-0.3-1.1c0-0.1,0-0.1,0-0.2c0,0,0-0.1,0-0.1c0-0.1,0.1-0.1,0.2-0.1c0.1,0,0.2,0,0.3-0.1c0,0,0,0,0,0
		C568.8,439.2,568.7,439,568.6,438.9L568.6,438.9z M566.3,437.7c-0.1,0-0.1-0.1-0.2-0.1c0,0,0-0.1,0-0.1c0-0.1-0.1-0.2-0.1-0.3
		c0-0.1,0-0.2-0.1-0.4c0,0.1,0.1,0.1,0.1,0.2c0.1,0.3,0.2,0.5,0.4,0.8C566.4,437.8,566.3,437.7,566.3,437.7L566.3,437.7z
		 M565.7,430.4c0-0.1,0-0.2,0-0.4c0.1,0.1,0.1,0.3,0.2,0.4c0,0.1,0.1,0.1,0.1,0.2c0,0,0.1,0,0.1,0.1c0.1,0,0.1,0.1,0.1,0.2
		c0,0,0,0-0.1,0c-0.1-0.1-0.2-0.2-0.3-0.3C565.8,430.5,565.8,430.5,565.7,430.4C565.7,430.4,565.7,430.4,565.7,430.4L565.7,430.4z
		 M565.4,430.1C565.4,430.1,565.4,430.1,565.4,430.1L565.4,430.1c-0.2,0.4-0.3,0.6-0.5,0.9c0,0,0,0,0,0c0,0,0-0.1,0.1-0.1
		C565.1,430.5,565.2,430.3,565.4,430.1C565.4,430,565.4,430,565.4,430.1L565.4,430.1z M567.8,440.9
		C567.8,440.9,567.7,440.9,567.8,440.9c-0.5-0.1-0.9-0.4-1.2-0.9c0,0-0.1-0.1-0.1-0.1c0.3,0.4,0.6,0.6,1,0.8c0.1,0,0.1,0.1,0.2,0.1
		C567.7,440.8,567.7,440.8,567.8,440.9L567.8,440.9z"/>
	<path d="M729.5,438.1c-0.1-0.1-0.2-0.1-0.4-0.2c-0.4-0.2-1,0.1-1.2-0.3c0-0.1-0.1-0.1-0.1-0.2c0.1,0,0.2,0,0.3,0.1c0,0,0.1,0,0.1,0
		c0,0,0.1-0.1,0.1-0.1c0.1-0.1,0.2,0.1,0.3,0.1c0.1,0.1,0.2,0.1,0.2,0c0,0,0-0.1,0-0.1c0-0.1,0-0.1,0-0.2c0,0,0,0,0.1,0
		c0.2,0.1,0.3,0.1,0.5,0.2c0,0,0.1,0,0.1,0c0,0,0,0,0,0c0-0.1,0-0.1,0-0.2c-0.1-0.2-0.1-0.3-0.2-0.4c0,0-0.1-0.1-0.1-0.1
		c-0.1-0.2,0-0.5,0-0.8c-0.1-0.2-0.2-0.1-0.3-0.1c-0.1,0-0.3,0-0.4-0.1c-0.1-0.1-0.2-0.2-0.3-0.3c-0.3-0.1-0.9-0.7-0.9-0.7
		c-0.1-0.2-0.3-0.3-0.4-0.5c0,0,0.1,0,0.1,0c0,0,0.1,0.1,0.1,0.1c0.1,0,0.1,0,0.2-0.1c0.1,0.1,0.1,0.3,0.2,0.4
		c0.1,0.1,0.3,0.1,0.4,0.3c0,0,0.1,0.1,0.1,0.1c0,0,0.1,0.1,0.1,0c0,0,0,0,0,0l0,0c0,0,0,0,0-0.1c0,0,0-0.1,0-0.1
		c0.1-0.1,0.1-0.1,0.2-0.1c0.1,0,0.2,0,0.2,0c0,0,0-0.1,0-0.1c0.1,0.1,0.2,0.2,0.2,0.2c0.1,0,0.2,0,0.2,0c0,0,0,0,0,0
		c0-0.1,0-0.1,0-0.2c0-0.2-0.1-0.5-0.2-0.6c0.1,0,0.2,0.1,0.3,0c0,0,0,0,0,0c0-0.1,0-0.3-0.1-0.4c-0.1-0.1-0.2-0.1-0.3-0.1
		c-0.4-0.1-0.9-0.4-1.2-0.9c-0.2-0.3-0.3-0.7-0.5-1c0,0,0,0,0,0c0-0.1,0-0.2,0-0.3c0-0.1,0-0.2,0-0.2c0,0,0,0.1,0,0.1
		c0.1,0.2,0.2,0.3,0.3,0.5c0.2,0.3,0.4,0.5,0.7,0.6c0,0,0.1,0,0.1,0.1c0.1,0.1,0.2,0.2,0.2,0.3c0,0,0,0,0.1,0c0,0,0,0,0,0
		c0,0,0-0.1,0-0.2c0,0,0,0,0,0c0,0,0.1,0.1,0.2,0c0,0,0,0,0,0c0,0,0-0.1,0-0.1c0-0.2-0.1-0.5-0.2-0.8c0,0,0-0.1,0-0.1c0,0,0,0,0-0.1
		c0,0,0.1-0.1,0.1-0.1c0.1,0,0.2,0,0.2,0c0,0,0,0,0,0c0.1-0.1,0-0.2-0.1-0.3c-0.1-0.1-0.2-0.1-0.3-0.1c-0.3-0.1-0.7,0.1-0.9-0.2
		c0-0.1-0.1-0.1-0.2-0.2c0,0,0,0,0,0c0,0,0,0,0,0c0,0,0,0,0,0c0,0,0-0.1,0-0.1c0.1,0.3,0.3,0.4,0.5,0.4c0,0,0.1,0,0.1-0.1
		c0,0,0,0,0-0.1c0-0.1,0-0.2-0.1-0.3c-0.1-0.1-0.1-0.2-0.1-0.3c0,0,0,0,0,0c0,0,0.1,0,0.1-0.1c0,0,0.1-0.1,0.1-0.1
		c0.1-0.1,0.1-0.2,0.1-0.3c0,0,0-0.1,0-0.1c0-0.1-0.1-0.1-0.1-0.1c0,0-0.1,0.1-0.1,0.1c-0.1,0.1-0.2,0.1-0.2,0.1
		c-0.1,0-0.1-0.1-0.2-0.1c-0.2-0.2-0.4-0.4-0.5-0.5c0,0,0,0-0.1-0.1c0-0.1,0-0.1,0-0.2c0-0.2,0-0.3-0.1-0.4c0-0.1,0-0.2,0-0.4
		c0,0,0,0,0,0c0,0,0-0.1,0-0.1c0-0.1,0-0.2,0-0.3c-0.1-0.4-0.2-0.9-0.2-1.3c0-0.1-0.1-0.9-0.1-0.9c0-0.2-0.1-0.3-0.1-0.2
		c0,0-0.1,0.1-0.1,0.2c-0.1,1.1-0.3,2.1-0.5,3.1c0,0.1,0,0.2,0,0.3c0,0.1,0.1,0.1,0.1,0c0,0,0.1-0.1,0.1,0.1c0,0,0,0.1,0,0.1
		c-0.1,0-0.3,0.1-0.4,0.2c-0.1,0.1-0.2,0.2-0.4,0.3c-0.1,0-0.2,0-0.3,0.1c0,0,0,0,0,0c0,0,0,0,0,0c0,0,0,0,0,0c0,0.1,0,0.2,0,0.3
		c0,0.1,0.1,0.1,0.1,0.1c0,0,0.1,0.1,0,0.2c0,0.1,0,0.1-0.1,0.2c0,0,0,0-0.1,0.1c0,0-0.1,0.1-0.1,0.1c0,0,0,0.1-0.1,0.1
		c0.2,0.3,0.4,0.1,0.6,0.2c0,0,0,0,0,0.1c-0.2,0.2-0.4,0.3-0.5,0.3c-0.1,0-0.2-0.1-0.4,0c0,0,0,0-0.1,0c0,0,0,0,0,0.1
		c0,0.1,0,0.1,0,0.2c0,0.1,0,0.2-0.1,0.3c0,0,0,0-0.1,0.1c-0.2,0.1-0.3,0.3-0.5,0.2c-0.1,0-0.1,0-0.2,0c0,0-0.1,0-0.1,0.1
		c0,0-0.1,0.1-0.1,0.2c0.3,0.4,0.7,0.8,1.1,0.4c-0.1,0.2-0.1,0.4-0.1,0.7c0.3-0.1,0.6-0.3,0.9-0.7c0,0,0-0.1,0.1-0.1c0,0,0,0,0-0.1
		c0,0,0-0.1,0.1-0.1c0,0,0.1,0,0.1,0c0.1,0,0.1-0.1,0.2-0.2c0,0.1,0,0.1,0,0.2c-0.1,0.1-0.1,0.2-0.2,0.3c-0.1,0.2-0.2,0.3-0.3,0.5
		c0,0-0.1,0.1-0.1,0.1c-0.2,0.3-0.4,0.6-0.6,0.8c-0.3,0.3-0.5,0.5-0.9,0.7c-0.1,0-0.1,0.1-0.2,0.1c0,0,0,0,0,0c0,0.1-0.1,0.1,0,0.2
		c0,0,0,0.1,0.1,0.1c0.2,0.1,0.4-0.2,0.7-0.1c0,0.1,0.1,0.2,0.3,0.2c0.1,0,0.2-0.1,0.3-0.2c0.1-0.1,0.2-0.2,0.4-0.3c0,0,0.1,0,0.1,0
		c0.1,0,0.1,0.2,0.2,0.2c0.1,0.1,0.2,0,0.3-0.1c0.1-0.1,0.1-0.1,0.2-0.2c-0.1,0.1-0.1,0.2-0.2,0.4c-0.1,0.2-0.2,0.3-0.4,0.4
		c0,0-0.1,0.1-0.1,0.1c0,0-0.1,0.1-0.1,0.2c0,0-0.1,0.1-0.1,0.1c-0.3,0.3-0.7,0.6-1.1,0.9c-0.1,0-0.1,0.1-0.2,0.1
		c0,0-0.1,0.1-0.1,0.1c-0.1,0.1-0.1,0.2-0.2,0.3c-0.1,0.1-0.1,0.2-0.1,0.3c0,0.1,0,0.3,0.1,0.3c0.1,0,0.1,0,0.2-0.1c0,0,0,0,0-0.1
		c0,0,0,0,0-0.1c0,0,0-0.1,0.1-0.1c0.1-0.1,0.2-0.2,0.3-0.1c0.1,0,0.1,0.4,0.2,0.3c0.1,0,0.1-0.1,0.2-0.2c0.1-0.1,0.3,0,0.4,0
		c0.2,0,0.4-0.2,0.6-0.4c0,0,0.1-0.1,0.1-0.1c0,0,0.1,0,0.1,0c0,0.1,0,0.2,0,0.3c0,0.1-0.1,0.1-0.1,0.2c-0.4,0.5-0.7,0.9-1.1,0.8
		c-0.2,0-0.3-0.1-0.5-0.1c0,0-0.1,0-0.1,0.1c0,0,0,0.1,0,0.1c0,0.1,0,0.1,0.1,0.2c0,0.1,0,0.3-0.1,0.4c0,0-0.1,0.1-0.1,0.1
		c-0.2,0.2-0.5,0.4-0.7,0.3c-0.1,0-0.2-0.1-0.2-0.1c-0.1,0-0.1,0-0.1,0.1c-0.1,0.1-0.1,0.2,0,0.3c0,0.1,0.2,0.2,0.3,0.3
		c0.1,0.1,0.2,0.2,0.4,0.3c0.1,0.1,0.2,0.1,0.4,0.1c0.1,0,0.3-0.1,0.3,0c0,0,0,0.1,0,0.2s0,0.1,0,0.2c0,0.1,0,0.1,0,0.2
		c0,0.1,0,0.1,0.1,0.2c0.1,0.1,0.2-0.1,0.3-0.1c0.1-0.1,0.2-0.1,0.3-0.2c0.1-0.1,0.2-0.2,0.3-0.3c0,0,0,0,0,0c0,0.1,0,0.1-0.1,0.2
		c0,0,0,0-0.1,0.1c0,0-0.1,0.1-0.1,0.1c0,0,0,0.1,0,0.1c0,0.1,0.2,0.2,0.2,0.2c0.1,0,0.2,0,0.3,0c0,0,0,0,0.1,0c0,0,0,0,0,0
		c0,0,0,0.1,0,0.1c0,0,0,0,0,0c0,0,0.1,0,0.1-0.1c0.1-0.1,0.1-0.3,0.2-0.4c0.1-0.2,0.2-0.3,0.2-0.5c0,0.1,0,0.3,0,0.4
		c0,0.2,0,0.4,0,0.6c0,0,0,0,0,0c0,0.2,0,0.4,0,0.6c0,0.4-0.1,0.5,0.1,0.5c0,0,0.1,0,0.1,0c0.1,0,0.2,0,0.2,0c0.1,0,0.2,0,0.3,0
		c0,0,0.1,0,0.1,0c0.3,0,0.2-0.2,0.1-0.6c0-0.1,0-0.3,0-0.4c0,0,0,0,0,0c0,0,0,0,0,0c0,0,0,0,0,0l0,0c0,0,0-0.1,0-0.1c0,0,0,0,0-0.1
		c0-0.2,0-0.3-0.1-0.5c0,0,0,0.1,0,0.1c0.1,0.2,0.2,0.5,0.3,0.7c0.1,0.1,0.3,0.1,0.4,0.3c0,0,0.1,0.1,0.1,0.1c0,0,0.1,0.1,0.1,0
		c0,0,0,0,0,0l0,0c0,0,0,0,0-0.1c0,0,0-0.1,0-0.1c0.1-0.1,0.1-0.1,0.2-0.1c0.1,0,0.2,0,0.2,0c0,0,0-0.1,0-0.1
		c0.1,0.1,0.2,0.2,0.2,0.2c0.1,0,0.2,0,0.2,0c0,0,0,0,0,0c0-0.1,0-0.1,0-0.2c0-0.2-0.1-0.5-0.2-0.6c0.1,0,0.2,0.1,0.3,0c0,0,0,0,0,0
		c0-0.1,0-0.2,0-0.3c0-0.1,0-0.1,0-0.2c0,0,0,0,0,0c0.1,0.1,0.2,0.1,0.2,0.1c0,0,0,0,0.1-0.1c0,0,0-0.1,0-0.1
		c0.1-0.3-0.2-0.8-0.3-1.1c0-0.1,0-0.1,0-0.2c0,0,0-0.1,0-0.1c0-0.1,0.1-0.1,0.2-0.1c0.1,0,0.2,0,0.3-0.1c0,0,0,0,0,0
		C729.7,438.5,729.6,438.2,729.5,438.1L729.5,438.1z M727.2,436.9c-0.1,0-0.1-0.1-0.2-0.1c0,0,0-0.1,0-0.1c0-0.1-0.1-0.2-0.1-0.3
		c0-0.1,0-0.2-0.1-0.4c0,0.1,0.1,0.1,0.1,0.2c0.1,0.3,0.2,0.5,0.4,0.8C727.3,437,727.2,437,727.2,436.9L727.2,436.9z M726.6,429.6
		c0-0.1,0-0.2,0-0.4c0.1,0.1,0.1,0.3,0.2,0.4c0,0.1,0.1,0.1,0.1,0.2c0,0,0.1,0,0.1,0.1c0.1,0,0.1,0.1,0.1,0.2c0,0,0,0-0.1,0
		c-0.1-0.1-0.2-0.2-0.3-0.3C726.7,429.8,726.7,429.7,726.6,429.6C726.6,429.7,726.6,429.6,726.6,429.6L726.6,429.6z M726.3,429.3
		C726.3,429.3,726.3,429.3,726.3,429.3L726.3,429.3c-0.2,0.4-0.3,0.6-0.5,0.9c0,0,0,0,0,0c0,0,0-0.1,0.1-0.1
		C726,429.8,726.1,429.5,726.3,429.3C726.3,429.3,726.3,429.3,726.3,429.3L726.3,429.3z M728.7,440.1
		C728.7,440.1,728.7,440.1,728.7,440.1c-0.5-0.1-0.9-0.4-1.2-0.9c0,0-0.1-0.1-0.1-0.1c0.3,0.4,0.6,0.6,1,0.8c0.1,0,0.1,0.1,0.2,0.1
		C728.6,440,728.6,440.1,728.7,440.1L728.7,440.1z"/>
	<path d="M734,440.7c-0.1-0.1-0.2-0.1-0.3-0.1c-0.3-0.1-0.7,0.1-0.9-0.2c0,0-0.1-0.1-0.1-0.1c0.1,0,0.1,0,0.2,0.1c0,0,0,0,0.1,0
		c0,0,0.1-0.1,0.1-0.1c0.1,0,0.1,0,0.2,0.1c0.1,0,0.1,0.1,0.2,0c0,0,0,0,0-0.1c0,0,0-0.1,0-0.1c0,0,0,0,0.1,0c0.1,0,0.3,0.1,0.4,0.1
		c0,0,0.1,0,0.1,0c0,0,0,0,0,0c0,0,0-0.1,0-0.1c0-0.1-0.1-0.2-0.2-0.3c0,0,0,0-0.1-0.1c-0.1-0.2,0-0.4,0-0.6c0-0.1-0.1-0.1-0.2-0.1
		c-0.1,0-0.2,0-0.3-0.1c-0.1-0.1-0.1-0.2-0.2-0.2c-0.2-0.1-0.7-0.5-0.7-0.5c-0.1-0.1-0.2-0.3-0.3-0.4c0,0,0,0,0.1,0
		c0,0,0,0.1,0.1,0.1c0,0,0.1,0,0.1-0.1c0,0.1,0.1,0.2,0.1,0.3c0.1,0.1,0.2,0.1,0.3,0.2c0,0,0.1,0.1,0.1,0.1c0,0,0.1,0,0.1,0
		c0,0,0,0,0,0l0,0c0,0,0,0,0,0c0,0,0,0,0-0.1c0-0.1,0.1-0.1,0.2-0.1c0.1,0,0.1,0,0.2,0c0,0,0,0,0-0.1c0.1,0.1,0.1,0.1,0.2,0.2
		c0.1,0,0.1,0,0.2,0c0,0,0,0,0,0c0,0,0-0.1,0-0.2c0-0.2-0.1-0.4-0.2-0.5c0.1,0,0.2,0,0.2,0c0,0,0,0,0,0c0-0.1,0-0.2-0.1-0.3
		s-0.2-0.1-0.2-0.1c-0.3,0-0.7-0.3-0.9-0.7c-0.1-0.2-0.2-0.5-0.4-0.7c0,0,0,0,0,0c0-0.1,0-0.1,0-0.2c0-0.1,0-0.1,0-0.2
		c0,0,0,0,0,0.1c0.1,0.1,0.1,0.2,0.2,0.3c0.1,0.2,0.3,0.4,0.5,0.4c0,0,0.1,0,0.1,0.1c0.1,0.1,0.1,0.1,0.2,0.2c0,0,0,0,0.1,0
		c0,0,0,0,0,0c0,0,0-0.1,0-0.1c0,0,0,0,0,0c0,0,0.1,0.1,0.1,0c0,0,0,0,0,0c0,0,0,0,0-0.1c0-0.2-0.1-0.4-0.2-0.6c0,0,0-0.1,0-0.1
		c0,0,0,0,0,0c0,0,0.1,0,0.1,0c0.1,0,0.1,0,0.2,0c0,0,0,0,0,0c0-0.1,0-0.2,0-0.2c-0.1-0.1-0.1-0.1-0.2-0.1c-0.2-0.1-0.5,0.1-0.7-0.2
		c0-0.1-0.1-0.1-0.1-0.2c0,0,0,0,0,0c0,0,0,0,0,0c0,0,0,0,0,0c0,0,0-0.1,0-0.1c0.1,0.2,0.3,0.3,0.4,0.3c0,0,0.1,0,0.1-0.1
		c0,0,0,0,0-0.1c0-0.1,0-0.1-0.1-0.2s-0.1-0.1-0.1-0.2c0,0,0,0,0,0c0,0,0,0,0.1-0.1c0,0,0.1,0,0.1-0.1c0-0.1,0.1-0.1,0.1-0.2
		c0,0,0-0.1,0-0.1c0-0.1-0.1-0.1-0.1-0.1c0,0-0.1,0.1-0.1,0.1c-0.1,0.1-0.1,0.1-0.2,0.1c-0.1,0-0.1-0.1-0.2-0.1
		c-0.1-0.1-0.3-0.3-0.4-0.4c0,0,0,0,0,0c0,0,0-0.1,0-0.2c0-0.1,0-0.2,0-0.3c0-0.1,0-0.2,0-0.3c0,0,0,0,0,0c0,0,0,0,0-0.1
		c0-0.1,0-0.2,0-0.2c-0.1-0.3-0.1-0.6-0.2-1c0-0.1-0.1-0.7-0.1-0.7c0-0.2-0.1-0.2-0.1-0.2c0,0,0,0.1-0.1,0.2
		c-0.1,0.8-0.2,1.5-0.4,2.3c0,0.1,0,0.2,0,0.2c0,0.1,0.1,0.1,0.1,0c0,0,0.1,0,0.1,0c0,0,0,0.1,0,0.1c-0.1,0-0.2,0-0.3,0.1
		c-0.1,0.1-0.2,0.2-0.3,0.2c-0.1,0-0.1,0-0.2,0.1c0,0,0,0,0,0c0,0,0,0,0,0c0,0,0,0,0,0c0,0,0,0.1,0,0.2c0,0,0,0.1,0.1,0.1
		c0,0,0,0.1,0,0.1c0,0.1,0,0.1,0,0.1c0,0,0,0,0,0c0,0-0.1,0-0.1,0.1c0,0,0,0,0,0.1c0.1,0.2,0.3,0.1,0.5,0.1c0,0,0,0,0,0
		c-0.1,0.1-0.3,0.2-0.4,0.2c-0.1,0-0.2-0.1-0.3,0c0,0,0,0,0,0c0,0,0,0,0,0.1c0,0.1,0,0.1,0,0.1c0,0.1,0,0.2-0.1,0.2c0,0,0,0,0,0
		c-0.1,0.1-0.3,0.2-0.4,0.2c0,0-0.1,0-0.1,0c0,0-0.1,0-0.1,0.1c0,0,0,0.1-0.1,0.1c0.2,0.3,0.5,0.6,0.8,0.3c0,0.1-0.1,0.3-0.1,0.5
		c0.2-0.1,0.5-0.3,0.7-0.6c0,0,0,0,0-0.1c0,0,0,0,0,0c0,0,0,0,0-0.1c0,0,0.1,0,0.1,0c0.1,0,0.1-0.1,0.1-0.1c0,0.1,0,0.1,0,0.2
		c-0.1,0.1-0.1,0.2-0.2,0.3c-0.1,0.1-0.2,0.3-0.2,0.4c0,0,0,0.1-0.1,0.1c-0.2,0.2-0.3,0.4-0.5,0.6c-0.2,0.2-0.4,0.4-0.7,0.5
		c0,0-0.1,0.1-0.1,0.1c0,0,0,0,0,0c0,0-0.1,0.1,0,0.2c0,0,0,0.1,0.1,0.1c0.2,0.1,0.3-0.1,0.5-0.1c0,0.1,0.1,0.1,0.2,0.1
		c0.1,0,0.2-0.1,0.2-0.2c0.1-0.1,0.2-0.1,0.3-0.2c0,0,0,0,0.1,0c0.1,0,0.1,0.1,0.1,0.2c0.1,0.1,0.2,0,0.2-0.1c0,0,0.1-0.1,0.2-0.1
		c0,0.1-0.1,0.2-0.2,0.3c-0.1,0.1-0.2,0.2-0.3,0.3c0,0-0.1,0.1-0.1,0.1c0,0,0,0.1,0,0.1c0,0,0,0-0.1,0.1c-0.3,0.2-0.5,0.5-0.8,0.7
		c0,0-0.1,0.1-0.1,0.1c0,0-0.1,0.1-0.1,0.1c0,0.1-0.1,0.1-0.1,0.2c0,0.1-0.1,0.2-0.1,0.3c0,0.1,0,0.2,0.1,0.2c0,0,0.1,0,0.1-0.1
		c0,0,0,0,0,0c0,0,0,0,0,0c0,0,0,0,0-0.1c0.1-0.1,0.2-0.1,0.3-0.1c0.1,0,0.1,0.3,0.2,0.3c0.1,0,0.1-0.1,0.2-0.1c0.1-0.1,0.2,0,0.3,0
		c0.2,0,0.3-0.1,0.4-0.3c0,0,0.1-0.1,0.1-0.1c0,0,0.1,0,0.1,0c0,0.1,0,0.1,0,0.2c0,0.1-0.1,0.1-0.1,0.2c-0.3,0.4-0.6,0.7-0.9,0.6
		c-0.1,0-0.3-0.1-0.4,0c0,0,0,0-0.1,0c0,0,0,0,0,0.1c0,0.1,0,0.1,0,0.2c0,0.1,0,0.2-0.1,0.3c0,0,0,0-0.1,0.1
		c-0.2,0.1-0.4,0.3-0.5,0.3c-0.1,0-0.1-0.1-0.2,0c0,0-0.1,0-0.1,0.1c0,0.1-0.1,0.1,0,0.2s0.1,0.2,0.2,0.2c0.1,0.1,0.2,0.2,0.3,0.2
		c0.1,0.1,0.2,0.1,0.3,0.1c0.1,0,0.2-0.1,0.2,0c0,0,0,0.1,0,0.1c0,0,0,0.1,0,0.1c0,0,0,0.1,0,0.1c0,0,0,0.1,0,0.1
		c0.1,0,0.2,0,0.2-0.1c0.1,0,0.2-0.1,0.2-0.2c0.1-0.1,0.1-0.1,0.2-0.2l0,0c0,0.1,0,0.1,0,0.1c0,0,0,0,0,0.1c0,0-0.1,0.1-0.1,0.1
		c0,0,0,0,0,0.1c0,0.1,0.1,0.1,0.2,0.1c0.1,0,0.1,0,0.2,0c0,0,0,0,0,0c0,0,0,0,0,0c0,0,0,0,0,0.1c0,0,0,0,0,0c0,0,0.1,0,0.1-0.1
		c0.1-0.1,0.1-0.2,0.1-0.3c0.1-0.1,0.1-0.2,0.2-0.4c0,0.1,0,0.2,0,0.3c0,0.2,0,0.3,0,0.4c0,0,0,0,0,0c0,0.1,0,0.3,0,0.4
		c0,0.3,0,0.4,0.1,0.4c0,0,0.1,0,0.1,0c0.1,0,0.1,0,0.2,0c0.1,0,0.1,0,0.2,0c0,0,0.1,0,0.1,0c0.2,0,0.1-0.1,0.1-0.4
		c0-0.1,0-0.2,0-0.3c0,0,0,0,0,0c0,0,0,0,0,0c0,0,0,0,0,0l0,0c0,0,0-0.1,0-0.1c0,0,0,0,0-0.1c0-0.1,0-0.2-0.1-0.4c0,0,0,0.1,0,0.1
		c0.1,0.2,0.1,0.4,0.2,0.5c0.1,0.1,0.2,0.1,0.3,0.2c0,0,0.1,0.1,0.1,0.1c0,0,0.1,0,0.1,0c0,0,0,0,0,0l0,0c0,0,0,0,0,0c0,0,0,0,0-0.1
		c0-0.1,0.1-0.1,0.2-0.1c0.1,0,0.1,0,0.2,0c0,0,0,0,0-0.1c0.1,0.1,0.1,0.1,0.2,0.2c0.1,0,0.1,0,0.2,0c0,0,0,0,0,0c0,0,0-0.1,0-0.2
		c0-0.2-0.1-0.4-0.2-0.5c0.1,0,0.2,0,0.2,0c0,0,0,0,0,0c0-0.1,0-0.1,0-0.2c0,0,0-0.1,0-0.1c0,0,0,0,0,0c0.1,0,0.1,0.1,0.2,0
		c0,0,0,0,0,0c0,0,0-0.1,0-0.1c0-0.3-0.2-0.6-0.3-0.8c0,0,0-0.1,0-0.1c0,0,0,0,0-0.1c0,0,0.1-0.1,0.2-0.1c0.1,0,0.2,0,0.2-0.1
		c0,0,0,0,0,0C734.2,440.9,734.1,440.7,734,440.7L734,440.7z M732.3,439.8c0,0-0.1-0.1-0.1-0.1c0,0,0-0.1,0-0.1c0-0.1,0-0.1-0.1-0.2
		c0,0,0-0.2-0.1-0.3c0,0.1,0,0.1,0.1,0.2C732.2,439.5,732.3,439.7,732.3,439.8C732.3,439.8,732.3,439.8,732.3,439.8L732.3,439.8z
		 M731.8,434.3c0-0.1,0-0.2,0-0.3c0,0.1,0.1,0.2,0.2,0.3c0,0,0.1,0.1,0.1,0.1c0,0,0.1,0,0.1,0.1c0,0,0.1,0.1,0.1,0.2c0,0,0,0,0,0
		c-0.1-0.1-0.2-0.1-0.3-0.2C731.9,434.4,731.9,434.4,731.8,434.3C731.8,434.3,731.8,434.3,731.8,434.3L731.8,434.3z M731.6,434.1
		C731.6,434.1,731.6,434.1,731.6,434.1L731.6,434.1c-0.1,0.3-0.2,0.5-0.4,0.7c0,0,0,0,0,0c0,0,0-0.1,0-0.1
		C731.3,434.4,731.5,434.2,731.6,434.1C731.6,434,731.6,434,731.6,434.1L731.6,434.1z M733.4,442.2
		C733.4,442.2,733.4,442.2,733.4,442.2c-0.4,0-0.7-0.3-0.9-0.7c0,0,0-0.1-0.1-0.1c0.2,0.3,0.5,0.5,0.7,0.6c0,0,0.1,0,0.1,0.1
		C733.3,442.1,733.4,442.1,733.4,442.2L733.4,442.2z"/>
	<path d="M720.6,433.6c-0.2-0.1-0.4-0.2-0.6-0.3c-0.7-0.2-1.6,0.2-2.1-0.4c-0.1-0.1-0.1-0.2-0.2-0.2c0.2,0,0.3,0,0.5,0.1
		c0.1,0,0.1,0.1,0.2,0.1c0.1,0,0.1-0.1,0.2-0.1c0.1-0.1,0.3,0.1,0.5,0.2c0.1,0.1,0.3,0.1,0.4,0c0,0,0.1-0.1,0.1-0.1
		c0-0.1,0-0.2,0-0.2c0,0,0.1,0,0.1,0c0.3,0.1,0.6,0.1,0.9,0.2c0.1,0,0.1,0,0.2,0c0,0,0,0,0-0.1c0-0.1,0-0.2,0-0.2
		c-0.1-0.2-0.2-0.4-0.4-0.6c0,0-0.1-0.1-0.1-0.1c-0.1-0.3,0.1-0.7-0.1-1c-0.1-0.2-0.3-0.2-0.5-0.1c-0.2,0-0.4,0-0.7-0.1
		c-0.2-0.1-0.3-0.3-0.5-0.4c-0.5-0.1-1.6-0.9-1.6-0.9c-0.2-0.2-0.5-0.5-0.7-0.7c0.1,0,0.1,0,0.1,0c0.1,0,0.1,0.1,0.2,0.1
		c0.1,0,0.2,0,0.3-0.1c0.1,0.2,0.2,0.4,0.3,0.5c0.2,0.2,0.5,0.2,0.7,0.4c0.1,0.1,0.1,0.1,0.2,0.2c0.1,0.1,0.2,0.1,0.2,0c0,0,0,0,0,0
		c0,0,0,0,0,0c0,0,0,0,0-0.1c0,0,0-0.1,0.1-0.1c0.1-0.1,0.2-0.2,0.4-0.2c0.1,0,0.3,0.1,0.4-0.1c0,0,0.1-0.1,0.1-0.1
		c0.1,0.1,0.3,0.3,0.4,0.3c0.2,0.1,0.3,0.1,0.4-0.1c0,0,0,0,0,0c0.1-0.1,0.1-0.2,0.1-0.3c0-0.3-0.2-0.6-0.4-0.9
		c0.2,0.1,0.4,0.1,0.5,0c0,0,0,0,0-0.1c0.1-0.2-0.1-0.4-0.2-0.6c-0.2-0.1-0.4-0.1-0.6-0.1c-0.7-0.1-1.5-0.5-2-1.2
		c-0.3-0.4-0.5-0.9-0.9-1.3c0,0,0,0,0,0c0-0.1,0-0.2,0-0.4c0-0.1,0-0.2-0.1-0.3c0,0,0.1,0.1,0.1,0.1c0.1,0.2,0.3,0.4,0.5,0.6
		c0.3,0.4,0.8,0.6,1.2,0.8c0.1,0,0.2,0.1,0.2,0.1c0.2,0.1,0.3,0.3,0.4,0.4c0,0,0.1,0,0.1,0c0,0,0,0,0,0c0.1,0,0-0.1,0.1-0.2
		c0,0,0,0,0,0c0.1,0.1,0.2,0.1,0.3,0.1c0,0,0.1,0,0.1-0.1c0,0,0.1-0.1,0.1-0.1c0.1-0.3-0.2-0.7-0.4-1c0,0-0.1-0.1-0.1-0.2
		c0,0,0-0.1,0-0.1c0.1-0.1,0.1-0.1,0.2-0.1c0.1,0,0.3,0,0.3-0.1c0,0,0,0,0,0c0.1-0.1,0-0.3-0.1-0.4c-0.1-0.1-0.3-0.1-0.5-0.2
		c-0.5-0.2-1.1,0.1-1.5-0.3c-0.1-0.1-0.2-0.2-0.3-0.3c0,0,0,0,0,0c0,0,0,0,0,0c0,0,0,0,0,0c0-0.1,0-0.1,0-0.2
		c0.2,0.4,0.6,0.6,0.9,0.6c0.1,0,0.2,0,0.2-0.1c0,0,0-0.1,0-0.1c0-0.1-0.1-0.3-0.2-0.4c-0.1-0.1-0.2-0.2-0.2-0.4c0,0,0,0,0-0.1
		c0,0,0.1-0.1,0.2-0.1c0.1,0,0.1-0.1,0.2-0.1c0.1-0.1,0.2-0.2,0.2-0.4c0-0.1,0-0.1,0-0.2c0-0.1-0.1-0.2-0.2-0.1
		c-0.1,0-0.2,0.1-0.2,0.2c-0.1,0.1-0.3,0.2-0.4,0.1c-0.1,0-0.2-0.1-0.4-0.2c-0.3-0.2-0.6-0.5-0.9-0.7c0,0-0.1-0.1-0.1-0.1
		c0-0.1,0-0.2,0-0.3c0-0.2-0.1-0.4-0.1-0.6c0-0.2-0.1-0.3-0.1-0.5c0,0,0.1,0,0.1,0c0,0,0-0.1,0.1-0.1c0-0.1,0-0.3,0-0.4
		c-0.1-0.6-0.3-1.2-0.4-1.8c0-0.1-0.1-1.2-0.2-1.2c-0.1-0.3-0.2-0.4-0.2-0.3c0,0-0.1,0.1-0.1,0.3c-0.2,1.5-0.5,2.8-0.8,4.2
		c0,0.1-0.1,0.3,0,0.4c0,0.2,0.1,0.1,0.2,0c0.1-0.1,0.2-0.1,0.2,0.1c0,0.1,0,0.1,0,0.2c-0.2,0-0.4,0.1-0.7,0.2
		c-0.2,0.1-0.4,0.3-0.6,0.4c-0.2,0.1-0.3,0-0.5,0.1c0,0-0.1,0-0.1,0c0,0,0,0,0,0c0,0,0,0,0,0c-0.1,0.1-0.1,0.3,0,0.3
		c0,0.1,0.1,0.1,0.1,0.2c0.1,0.1,0.1,0.1,0.1,0.3c0,0.1-0.1,0.2-0.1,0.3c0,0-0.1,0.1-0.1,0.1c-0.1,0-0.1,0.1-0.2,0.2
		c0,0-0.1,0.1-0.1,0.1c0.3,0.4,0.7,0.2,1.1,0.2c0,0,0.1,0,0.1,0.1c-0.3,0.3-0.6,0.4-0.9,0.4c-0.2,0-0.4-0.1-0.6-0.1
		c0,0-0.1,0-0.1,0.1c0,0,0,0.1,0,0.1c0,0.1,0,0.1,0.1,0.2c0,0.1,0,0.3-0.1,0.4c0,0-0.1,0.1-0.1,0.1c-0.3,0.2-0.6,0.4-0.9,0.3
		c-0.1,0-0.2-0.1-0.3-0.1c-0.1,0-0.1,0-0.2,0.1c-0.1,0.1-0.1,0.1-0.1,0.2c0.6,0.5,1.2,1,1.8,0.6c-0.1,0.3-0.2,0.6-0.2,0.9
		c0.5-0.1,1-0.5,1.5-1c0,0,0.1-0.1,0.1-0.1c0,0,0,0,0.1-0.1c0,0,0.1-0.1,0.1-0.1c0.1,0,0.1,0,0.2,0c0.1,0,0.2-0.1,0.3-0.2
		c0,0.1,0,0.2,0,0.3c-0.1,0.2-0.2,0.3-0.3,0.5c-0.2,0.2-0.4,0.5-0.5,0.7c0,0.1-0.1,0.1-0.1,0.2c-0.3,0.4-0.7,0.8-1.1,1.1
		c-0.4,0.4-0.9,0.7-1.5,1c-0.1,0-0.2,0.1-0.3,0.2c0,0,0,0,0,0c-0.1,0.1-0.1,0.2-0.1,0.3c0,0.1,0.1,0.1,0.1,0.1
		c0.3,0.2,0.8-0.2,1.1-0.2c0,0.2,0.3,0.3,0.4,0.2c0.2,0,0.3-0.2,0.5-0.3c0.2-0.1,0.4-0.3,0.6-0.4c0.1,0,0.1-0.1,0.2,0
		c0.2,0,0.2,0.2,0.3,0.3c0.1,0.1,0.4,0,0.5-0.2c0.1-0.1,0.2-0.2,0.3-0.2c-0.1,0.2-0.2,0.3-0.3,0.5c-0.2,0.2-0.4,0.4-0.7,0.6
		c-0.1,0.1-0.2,0.1-0.2,0.2c-0.1,0.1-0.1,0.1-0.1,0.2c-0.1,0-0.1,0.1-0.2,0.1c-0.6,0.4-1.2,0.8-1.8,1.2c-0.1,0.1-0.2,0.1-0.3,0.2
		c-0.1,0.1-0.1,0.1-0.2,0.2c-0.1,0.1-0.2,0.2-0.3,0.4c-0.1,0.1-0.2,0.3-0.2,0.5s0.1,0.4,0.2,0.4c0.1,0,0.2,0,0.3-0.1
		c0,0,0,0,0.1-0.1c0,0,0,0,0.1-0.1c0,0,0.1-0.1,0.1-0.1c0.1-0.1,0.4-0.2,0.6-0.2c0.3,0.1,0.1,0.5,0.4,0.5c0.1,0,0.2-0.2,0.4-0.2
		c0.2-0.1,0.5,0,0.7,0c0.4,0,0.7-0.3,1-0.5c0.1-0.1,0.1-0.1,0.2-0.2c0.1,0,0.1,0,0.2,0c0,0.1,0,0.2-0.1,0.3
		c-0.1,0.1-0.2,0.2-0.2,0.3c-0.6,0.7-1.3,1.2-1.9,1.1c-0.3,0-0.6-0.1-0.8-0.1c0,0-0.1,0-0.1,0.1c0,0-0.1,0.1-0.1,0.1
		c0,0.1,0.1,0.2,0.1,0.3c0.1,0.2,0,0.4-0.2,0.5c0,0-0.1,0.1-0.1,0.1c-0.4,0.3-0.8,0.5-1.2,0.5c-0.1,0-0.3-0.1-0.4-0.1
		c-0.1,0-0.2,0.1-0.2,0.1c-0.1,0.1-0.1,0.3-0.1,0.4c0.1,0.2,0.3,0.3,0.4,0.4c0.2,0.1,0.4,0.3,0.6,0.4c0.2,0.1,0.4,0.2,0.6,0.2
		c0.1,0,0.5-0.2,0.5,0c0,0.1,0.1,0.1,0,0.2c0,0.1,0,0.2,0,0.2c0,0.1,0,0.1,0,0.2c0,0.1,0,0.2,0.1,0.2c0.1,0.1,0.4-0.1,0.5-0.2
		c0.2-0.1,0.3-0.2,0.5-0.3c0.2-0.1,0.3-0.2,0.4-0.4c0,0,0,0,0,0c0,0.1,0,0.2-0.1,0.3c0,0-0.1,0.1-0.1,0.1c0,0-0.1,0.1-0.2,0.2
		c0,0-0.1,0.1-0.1,0.1c0,0.2,0.3,0.2,0.4,0.2c0.2,0,0.3,0,0.5-0.1c0,0,0.1,0,0.1,0c0,0,0.1,0,0.1,0.1c0,0,0,0.1,0,0.1c0,0,0,0,0,0
		c0.1,0,0.2,0,0.3-0.1c0.1-0.2,0.2-0.4,0.3-0.5c0.1-0.2,0.3-0.5,0.4-0.7c0,0.2,0,0.3,0,0.5c0,0.3,0,0.6,0,0.8c0,0,0,0,0,0.1
		c0,0.3,0,0.5-0.1,0.8c0,0.5-0.1,0.6,0.2,0.7c0.1,0,0.1,0,0.2,0c0.1,0,0.3,0,0.4,0c0.2,0,0.3,0,0.5,0c0.1,0,0.1,0,0.2,0
		c0.4,0,0.3-0.2,0.2-0.8c0-0.2-0.1-0.3-0.1-0.5c0,0,0,0,0.1,0c0,0,0.1,0,0.1,0c0,0,0,0,0,0c0,0,0,0,0,0c0,0,0-0.1,0-0.2
		c0,0,0-0.1,0-0.1c0-0.2-0.1-0.4-0.1-0.7c0,0,0.1,0.1,0.1,0.1c0.2,0.3,0.3,0.7,0.5,0.9c0.2,0.2,0.5,0.2,0.7,0.4
		c0.1,0.1,0.1,0.1,0.2,0.2c0.1,0.1,0.2,0.1,0.2,0c0,0,0,0,0,0c0,0,0,0,0,0c0,0,0,0,0-0.1c0,0,0-0.1,0.1-0.1c0.1-0.1,0.2-0.2,0.4-0.2
		c0.1,0,0.3,0.1,0.4-0.1c0,0,0.1-0.1,0.1-0.1c0.1,0.1,0.3,0.3,0.4,0.3c0.2,0.1,0.3,0.1,0.4-0.1c0,0,0,0,0,0c0.1-0.1,0.1-0.2,0.1-0.3
		c0-0.3-0.2-0.6-0.4-0.9c0.2,0.1,0.4,0.1,0.5,0c0,0,0,0,0-0.1c0.1-0.1,0-0.3-0.1-0.4c0-0.1,0-0.2,0.1-0.2c0,0,0,0,0,0
		c0.1,0.1,0.3,0.1,0.4,0.1c0,0,0.1,0,0.1-0.1c0,0,0.1-0.1,0.1-0.2c0.1-0.5-0.4-1.1-0.6-1.5c0-0.1-0.1-0.1-0.1-0.2c0,0,0-0.1,0-0.1
		c0.1-0.1,0.2-0.1,0.3-0.1c0.2,0,0.4,0,0.5-0.1c0,0,0,0,0,0C720.8,434,720.8,433.7,720.6,433.6L720.6,433.6z M716.6,432
		c-0.1-0.1-0.2-0.1-0.3-0.2c0,0,0-0.1-0.1-0.1c-0.1-0.1-0.1-0.2-0.1-0.3c0-0.1-0.1-0.3-0.1-0.5c0.1,0.1,0.1,0.2,0.2,0.3
		c0.2,0.4,0.4,0.7,0.7,1C716.7,432.1,716.7,432,716.6,432L716.6,432z M715.6,422c0-0.2,0-0.3,0-0.5c0.1,0.2,0.2,0.4,0.3,0.5
		c0.1,0.1,0.1,0.2,0.2,0.2c0.1,0,0.2,0.1,0.2,0.1c0.1,0.1,0.2,0.2,0.2,0.3c0,0-0.1,0-0.1-0.1c-0.2-0.1-0.4-0.2-0.6-0.4
		C715.8,422.2,715.7,422.2,715.6,422C715.6,422.1,715.6,422.1,715.6,422L715.6,422z M715,421.6C715,421.6,715,421.7,715,421.6l0,0.1
		c-0.2,0.4-0.5,0.7-0.7,1.1c0,0,0,0,0,0c0-0.1,0.1-0.1,0.1-0.2C714.5,422.2,714.8,421.9,715,421.6C715,421.6,715,421.6,715,421.6
		L715,421.6z M719.1,436.4C719.1,436.4,719.1,436.4,719.1,436.4c-0.8-0.1-1.6-0.5-2.1-1.2c0-0.1-0.1-0.1-0.1-0.2
		c0.5,0.5,1,0.9,1.7,1.1c0.1,0,0.2,0.1,0.3,0.1C719,436.2,719.1,436.3,719.1,436.4L719.1,436.4z"/>
	<path d="M725.7,439c-0.1-0.1-0.2-0.1-0.4-0.2c-0.4-0.2-1,0.1-1.2-0.3c0-0.1-0.1-0.1-0.1-0.2c0.1,0,0.2,0,0.3,0.1c0,0,0.1,0,0.1,0
		c0,0,0.1-0.1,0.1-0.1c0.1-0.1,0.2,0.1,0.3,0.1c0.1,0.1,0.2,0.1,0.2,0c0,0,0-0.1,0-0.1c0-0.1,0-0.1,0-0.2c0,0,0,0,0.1,0
		c0.2,0.1,0.3,0.1,0.5,0.2c0,0,0.1,0,0.1,0c0,0,0,0,0,0c0-0.1,0-0.1,0-0.2c-0.1-0.2-0.1-0.3-0.2-0.4c0,0-0.1-0.1-0.1-0.1
		c-0.1-0.2,0-0.5,0-0.8c-0.1-0.2-0.2-0.1-0.3-0.1c-0.1,0-0.3,0-0.4-0.1c-0.1-0.1-0.2-0.2-0.3-0.3c-0.3-0.1-0.9-0.7-0.9-0.7
		c-0.1-0.2-0.3-0.3-0.4-0.5c0,0,0.1,0,0.1,0c0,0,0.1,0.1,0.1,0.1c0.1,0,0.1,0,0.2-0.1c0.1,0.1,0.1,0.3,0.2,0.4
		c0.1,0.1,0.3,0.1,0.4,0.3c0,0,0.1,0.1,0.1,0.1c0,0,0.1,0.1,0.1,0c0,0,0,0,0,0l0,0c0,0,0,0,0-0.1c0,0,0-0.1,0-0.1
		c0.1-0.1,0.1-0.1,0.2-0.1c0.1,0,0.2,0,0.2,0c0,0,0-0.1,0-0.1c0.1,0.1,0.2,0.2,0.2,0.2c0.1,0,0.2,0,0.2,0c0,0,0,0,0,0
		c0-0.1,0-0.1,0-0.2c0-0.2-0.1-0.5-0.2-0.6c0.1,0,0.2,0.1,0.3,0c0,0,0,0,0,0c0-0.1,0-0.3-0.1-0.4c-0.1-0.1-0.2-0.1-0.3-0.1
		c-0.4-0.1-0.9-0.4-1.2-0.9c-0.2-0.3-0.3-0.7-0.5-1c0,0,0,0,0,0c0-0.1,0-0.2,0-0.3c0-0.1,0-0.2,0-0.2c0,0,0,0.1,0,0.1
		c0.1,0.2,0.2,0.3,0.3,0.5c0.2,0.3,0.4,0.5,0.7,0.6c0,0,0.1,0,0.1,0.1c0.1,0.1,0.2,0.2,0.2,0.3c0,0,0,0,0.1,0c0,0,0,0,0,0
		c0,0,0-0.1,0-0.2c0,0,0,0,0,0c0,0,0.1,0.1,0.2,0c0,0,0,0,0,0c0,0,0-0.1,0-0.1c0-0.2-0.1-0.5-0.2-0.8c0,0,0-0.1,0-0.1c0,0,0,0,0-0.1
		c0,0,0.1-0.1,0.1-0.1c0.1,0,0.2,0,0.2,0c0,0,0,0,0,0c0.1-0.1,0-0.2-0.1-0.3c-0.1-0.1-0.2-0.1-0.3-0.1c-0.3-0.1-0.7,0.1-0.9-0.2
		c0-0.1-0.1-0.1-0.2-0.2c0,0,0,0,0,0c0,0,0,0,0,0c0,0,0,0,0,0c0,0,0-0.1,0-0.1c0.1,0.3,0.3,0.4,0.5,0.4c0,0,0.1,0,0.1-0.1
		c0,0,0,0,0-0.1c0-0.1,0-0.2-0.1-0.3c-0.1-0.1-0.1-0.2-0.1-0.3c0,0,0,0,0,0c0,0,0.1,0,0.1-0.1c0,0,0.1-0.1,0.1-0.1
		c0.1-0.1,0.1-0.2,0.1-0.3c0,0,0-0.1,0-0.1c0-0.1-0.1-0.1-0.1-0.1s-0.1,0.1-0.1,0.1c-0.1,0.1-0.2,0.1-0.2,0.1
		c-0.1,0-0.1-0.1-0.2-0.1c-0.2-0.2-0.4-0.4-0.5-0.5c0,0,0,0-0.1-0.1c0-0.1,0-0.1,0-0.2c0-0.2,0-0.3-0.1-0.4c0-0.1,0-0.2,0-0.4
		c0,0,0,0,0,0c0,0,0-0.1,0-0.1c0-0.1,0-0.2,0-0.3c-0.1-0.4-0.2-0.9-0.2-1.3c0-0.1-0.1-0.9-0.1-0.9c0-0.2-0.1-0.3-0.1-0.2
		c0,0-0.1,0.1-0.1,0.2c-0.1,1.1-0.3,2.1-0.5,3.1c0,0.1,0,0.2,0,0.3c0,0.1,0.1,0.1,0.1,0s0.1-0.1,0.1,0.1c0,0,0,0.1,0,0.1
		c-0.1,0-0.3,0.1-0.4,0.2c-0.1,0.1-0.2,0.2-0.4,0.3c-0.1,0-0.2,0-0.3,0.1c0,0,0,0,0,0c0,0,0,0,0,0c0,0,0,0,0,0c0,0.1,0,0.2,0,0.3
		c0,0.1,0.1,0.1,0.1,0.1c0,0,0.1,0.1,0,0.2c0,0.1,0,0.1-0.1,0.2c0,0,0,0-0.1,0.1c0,0-0.1,0.1-0.1,0.1c0,0,0,0.1-0.1,0.1
		c0.2,0.3,0.4,0.1,0.6,0.2c0,0,0,0,0,0.1c-0.2,0.2-0.4,0.3-0.5,0.3c-0.1,0-0.2-0.1-0.4,0c0,0,0,0-0.1,0c0,0,0,0,0,0.1
		c0,0.1,0,0.1,0,0.2c0,0.1,0,0.2-0.1,0.3c0,0,0,0-0.1,0.1c-0.2,0.1-0.3,0.3-0.5,0.2c-0.1,0-0.1,0-0.2,0c0,0-0.1,0-0.1,0.1
		c0,0-0.1,0.1-0.1,0.2c0.3,0.4,0.7,0.8,1.1,0.4c-0.1,0.2-0.1,0.4-0.1,0.7c0.3-0.1,0.6-0.3,0.9-0.7c0,0,0-0.1,0.1-0.1c0,0,0,0,0-0.1
		c0,0,0-0.1,0.1-0.1c0,0,0.1,0,0.1,0c0.1,0,0.1-0.1,0.2-0.2c0,0.1,0,0.1,0,0.2c-0.1,0.1-0.1,0.2-0.2,0.3c-0.1,0.2-0.2,0.3-0.3,0.5
		c0,0-0.1,0.1-0.1,0.1c-0.2,0.3-0.4,0.6-0.6,0.8c-0.3,0.3-0.5,0.5-0.9,0.7c-0.1,0-0.1,0.1-0.2,0.1c0,0,0,0,0,0c0,0.1-0.1,0.1,0,0.2
		c0,0,0,0.1,0.1,0.1c0.2,0.1,0.4-0.2,0.7-0.1c0,0.1,0.1,0.2,0.3,0.2c0.1,0,0.2-0.1,0.3-0.2c0.1-0.1,0.2-0.2,0.4-0.3c0,0,0.1,0,0.1,0
		c0.1,0,0.1,0.2,0.2,0.2c0.1,0.1,0.2,0,0.3-0.1c0.1-0.1,0.1-0.1,0.2-0.2c-0.1,0.1-0.1,0.2-0.2,0.4c-0.1,0.2-0.2,0.3-0.4,0.4
		c0,0-0.1,0.1-0.1,0.1c0,0-0.1,0.1-0.1,0.2c0,0-0.1,0.1-0.1,0.1c-0.3,0.3-0.7,0.6-1.1,0.9c-0.1,0-0.1,0.1-0.2,0.1
		c0,0-0.1,0.1-0.1,0.1c-0.1,0.1-0.1,0.2-0.2,0.3c-0.1,0.1-0.1,0.2-0.1,0.3c0,0.1,0,0.3,0.1,0.3c0.1,0,0.1,0,0.2-0.1c0,0,0,0,0-0.1
		c0,0,0,0,0-0.1c0,0,0-0.1,0.1-0.1c0.1-0.1,0.2-0.2,0.3-0.1c0.1,0,0.1,0.4,0.2,0.3c0.1,0,0.1-0.1,0.2-0.2c0.1-0.1,0.3,0,0.4,0
		c0.2,0,0.4-0.2,0.6-0.4c0,0,0.1-0.1,0.1-0.1c0,0,0.1,0,0.1,0c0,0.1,0,0.2,0,0.3c0,0.1-0.1,0.1-0.1,0.2c-0.4,0.5-0.7,0.9-1.1,0.8
		c-0.2,0-0.3-0.1-0.5-0.1c0,0-0.1,0-0.1,0.1c0,0,0,0.1,0,0.1c0,0.1,0,0.1,0.1,0.2c0,0.1,0,0.3-0.1,0.4c0,0-0.1,0.1-0.1,0.1
		c-0.2,0.2-0.5,0.4-0.7,0.3c-0.1,0-0.2-0.1-0.2-0.1c-0.1,0-0.1,0-0.1,0.1c-0.1,0.1-0.1,0.2,0,0.3c0,0.1,0.2,0.2,0.3,0.3
		c0.1,0.1,0.2,0.2,0.4,0.3c0.1,0.1,0.2,0.1,0.4,0.1c0.1,0,0.3-0.1,0.3,0c0,0,0,0.1,0,0.2c0,0.1,0,0.1,0,0.2c0,0.1,0,0.1,0,0.2
		c0,0.1,0,0.1,0.1,0.2c0.1,0.1,0.2-0.1,0.3-0.1c0.1-0.1,0.2-0.1,0.3-0.2c0.1-0.1,0.2-0.2,0.3-0.3c0,0,0,0,0,0c0,0.1,0,0.1-0.1,0.2
		c0,0,0,0-0.1,0.1c0,0-0.1,0.1-0.1,0.1c0,0,0,0.1,0,0.1c0,0.1,0.2,0.2,0.2,0.2c0.1,0,0.2,0,0.3,0c0,0,0,0,0.1,0c0,0,0,0,0,0
		c0,0,0,0.1,0,0.1c0,0,0,0,0,0c0,0,0.1,0,0.1-0.1c0.1-0.1,0.1-0.3,0.2-0.4c0.1-0.2,0.2-0.3,0.2-0.5c0,0.1,0,0.3,0,0.4
		c0,0.2,0,0.4,0,0.6c0,0,0,0,0,0c0,0.2,0,0.4,0,0.6c0,0.4-0.1,0.5,0.1,0.5c0,0,0.1,0,0.1,0c0.1,0,0.2,0,0.2,0c0.1,0,0.2,0,0.3,0
		c0,0,0.1,0,0.1,0c0.3,0,0.2-0.2,0.1-0.6c0-0.1,0-0.3,0-0.4c0,0,0,0,0,0c0,0,0,0,0,0c0,0,0,0,0,0l0,0c0,0,0-0.1,0-0.1c0,0,0,0,0-0.1
		c0-0.2,0-0.3-0.1-0.5c0,0,0,0.1,0,0.1c0.1,0.2,0.2,0.5,0.3,0.7c0.1,0.1,0.3,0.1,0.4,0.3c0,0,0.1,0.1,0.1,0.1c0,0,0.1,0.1,0.1,0
		c0,0,0,0,0,0l0,0c0,0,0,0,0-0.1c0,0,0-0.1,0-0.1c0.1-0.1,0.1-0.1,0.2-0.1c0.1,0,0.2,0,0.2,0c0,0,0-0.1,0-0.1
		c0.1,0.1,0.2,0.2,0.2,0.2c0.1,0,0.2,0,0.2,0c0,0,0,0,0,0c0-0.1,0-0.1,0-0.2c0-0.2-0.1-0.5-0.2-0.6c0.1,0,0.2,0.1,0.3,0c0,0,0,0,0,0
		c0-0.1,0-0.2,0-0.3c0-0.1,0-0.1,0-0.2c0,0,0,0,0,0c0.1,0.1,0.2,0.1,0.2,0.1c0,0,0,0,0.1-0.1c0,0,0-0.1,0-0.1
		c0.1-0.3-0.2-0.8-0.3-1.1c0-0.1,0-0.1,0-0.2c0,0,0-0.1,0-0.1c0-0.1,0.1-0.1,0.2-0.1c0.1,0,0.2,0,0.3-0.1c0,0,0,0,0,0
		C725.8,439.3,725.8,439.1,725.7,439L725.7,439z M723.3,437.8c-0.1,0-0.1-0.1-0.2-0.1c0,0,0-0.1,0-0.1c0-0.1-0.1-0.2-0.1-0.3
		c0-0.1,0-0.2-0.1-0.4c0,0.1,0.1,0.1,0.1,0.2c0.1,0.3,0.2,0.5,0.4,0.8C723.4,437.9,723.4,437.8,723.3,437.8L723.3,437.8z
		 M722.8,430.5c0-0.1,0-0.2,0-0.4c0.1,0.1,0.1,0.3,0.2,0.4c0,0.1,0.1,0.1,0.1,0.2c0,0,0.1,0,0.1,0.1c0.1,0,0.1,0.1,0.1,0.2
		c0,0,0,0-0.1,0c-0.1-0.1-0.2-0.2-0.3-0.3C722.9,430.6,722.8,430.6,722.8,430.5C722.8,430.5,722.8,430.5,722.8,430.5L722.8,430.5z
		 M722.4,430.2C722.4,430.2,722.4,430.2,722.4,430.2L722.4,430.2c-0.2,0.4-0.3,0.6-0.5,0.9c0,0,0,0,0,0c0,0,0-0.1,0.1-0.1
		C722.1,430.6,722.3,430.4,722.4,430.2C722.4,430.1,722.4,430.1,722.4,430.2L722.4,430.2z M724.8,441C724.8,441,724.8,441,724.8,441
		c-0.5-0.1-0.9-0.4-1.2-0.9c0,0-0.1-0.1-0.1-0.1c0.3,0.4,0.6,0.6,1,0.8c0.1,0,0.1,0.1,0.2,0.1C724.8,440.9,724.8,440.9,724.8,441
		L724.8,441z"/>
	<path d="M572.7,433.5c-0.1-0.1-0.2-0.1-0.3-0.1c-0.3-0.1-0.7,0.1-0.9-0.2c0,0-0.1-0.1-0.1-0.1c0.1,0,0.1,0,0.2,0.1c0,0,0,0,0.1,0
		c0,0,0.1-0.1,0.1-0.1c0.1,0,0.1,0,0.2,0.1c0.1,0,0.1,0.1,0.2,0c0,0,0,0,0-0.1c0,0,0-0.1,0-0.1c0,0,0,0,0.1,0c0.1,0,0.3,0.1,0.4,0.1
		c0,0,0.1,0,0.1,0c0,0,0,0,0,0c0,0,0-0.1,0-0.1c0-0.1-0.1-0.2-0.2-0.3c0,0,0,0-0.1-0.1c-0.1-0.2,0-0.4,0-0.6c0-0.1-0.2-0.1-0.2-0.1
		c-0.1,0-0.2,0-0.3-0.1c-0.1-0.1-0.1-0.2-0.2-0.2c-0.2-0.1-0.7-0.5-0.7-0.5c-0.1-0.1-0.2-0.3-0.3-0.4c0,0,0,0,0.1,0
		c0,0,0,0.1,0.1,0.1c0,0,0.1,0,0.1-0.1c0,0.1,0.1,0.2,0.1,0.3c0.1,0.1,0.2,0.1,0.3,0.2c0,0,0.1,0.1,0.1,0.1c0,0,0.1,0,0.1,0
		c0,0,0,0,0,0l0,0c0,0,0,0,0,0c0,0,0,0,0-0.1c0-0.1,0.1-0.1,0.2-0.1c0.1,0,0.1,0,0.2,0c0,0,0,0,0-0.1c0.1,0.1,0.1,0.1,0.2,0.2
		c0.1,0,0.1,0,0.2,0c0,0,0,0,0,0c0,0,0-0.1,0-0.2c0-0.2-0.1-0.4-0.2-0.5c0.1,0,0.2,0,0.2,0c0,0,0,0,0,0c0-0.1,0-0.2-0.1-0.3
		c-0.1-0.1-0.2-0.1-0.2-0.1c-0.3,0-0.7-0.3-0.9-0.7c-0.1-0.2-0.2-0.5-0.4-0.7c0,0,0,0,0,0c0-0.1,0-0.1,0-0.2c0-0.1,0-0.1,0-0.2
		c0,0,0,0,0,0.1c0.1,0.1,0.1,0.2,0.2,0.3c0.1,0.2,0.3,0.4,0.5,0.4c0,0,0.1,0,0.1,0.1c0.1,0.1,0.1,0.1,0.2,0.2c0,0,0,0,0.1,0
		c0,0,0,0,0,0c0,0,0-0.1,0-0.1c0,0,0,0,0,0c0,0,0.1,0.1,0.1,0c0,0,0,0,0,0c0,0,0,0,0-0.1c0-0.2-0.1-0.4-0.2-0.6c0,0,0-0.1,0-0.1
		c0,0,0,0,0,0c0,0,0.1,0,0.1,0c0.1,0,0.1,0,0.2,0c0,0,0,0,0,0c0-0.1,0-0.2,0-0.2c-0.1-0.1-0.1-0.1-0.2-0.1c-0.2-0.1-0.5,0.1-0.7-0.2
		c0-0.1-0.1-0.1-0.1-0.2c0,0,0,0,0,0c0,0,0,0,0,0c0,0,0,0,0,0c0,0,0-0.1,0-0.1c0.1,0.2,0.3,0.3,0.4,0.3c0,0,0.1,0,0.1-0.1
		c0,0,0,0,0-0.1c0-0.1,0-0.1-0.1-0.2c0,0-0.1-0.1-0.1-0.2c0,0,0,0,0,0c0,0,0,0,0.1-0.1c0,0,0.1,0,0.1-0.1c0-0.1,0.1-0.1,0.1-0.2
		c0,0,0-0.1,0-0.1c0-0.1-0.1-0.1-0.1-0.1c0,0-0.1,0.1-0.1,0.1c-0.1,0.1-0.1,0.1-0.2,0.1c-0.1,0-0.1-0.1-0.2-0.1
		c-0.1-0.1-0.3-0.3-0.4-0.4c0,0,0,0,0,0c0,0,0-0.1,0-0.2c0-0.1,0-0.2,0-0.3c0-0.1,0-0.2,0-0.3c0,0,0,0,0,0c0,0,0,0,0-0.1
		c0-0.1,0-0.2,0-0.2c-0.1-0.3-0.1-0.6-0.2-1c0-0.1-0.1-0.7-0.1-0.7c0-0.2-0.1-0.2-0.1-0.2c0,0,0,0.1-0.1,0.2
		c-0.1,0.8-0.2,1.5-0.4,2.3c0,0.1,0,0.2,0,0.2c0,0.1,0.1,0.1,0.1,0c0,0,0.1,0,0.1,0c0,0,0,0.1,0,0.1c-0.1,0-0.2,0-0.3,0.1
		c-0.1,0.1-0.2,0.2-0.3,0.2c-0.1,0-0.1,0-0.2,0.1c0,0,0,0,0,0c0,0,0,0,0,0s0,0,0,0c0,0,0,0.1,0,0.2c0,0,0,0.1,0.1,0.1s0,0.1,0,0.1
		c0,0.1,0,0.1,0,0.1c0,0,0,0,0,0c0,0-0.1,0-0.1,0.1c0,0,0,0,0,0.1c0.1,0.2,0.3,0.1,0.5,0.1c0,0,0,0,0,0c-0.1,0.1-0.3,0.2-0.4,0.2
		c-0.1,0-0.2-0.1-0.3,0c0,0,0,0,0,0c0,0,0,0,0,0.1c0,0.1,0,0.1,0,0.1c0,0.1,0,0.2-0.1,0.2c0,0,0,0,0,0c-0.1,0.1-0.3,0.2-0.4,0.2
		c0,0-0.1,0-0.1,0c0,0-0.1,0-0.1,0.1c0,0,0,0.1-0.1,0.1c0.2,0.3,0.5,0.6,0.8,0.3c0,0.1-0.1,0.3-0.1,0.5c0.2-0.1,0.5-0.3,0.7-0.6
		c0,0,0,0,0-0.1c0,0,0,0,0,0c0,0,0,0,0-0.1c0,0,0.1,0,0.1,0c0.1,0,0.1-0.1,0.1-0.1c0,0.1,0,0.1,0,0.2c-0.1,0.1-0.1,0.2-0.2,0.3
		c-0.1,0.1-0.2,0.3-0.2,0.4c0,0,0,0.1-0.1,0.1c-0.2,0.2-0.3,0.4-0.5,0.6c-0.2,0.2-0.4,0.4-0.7,0.5c0,0-0.1,0.1-0.1,0.1c0,0,0,0,0,0
		c0,0-0.1,0.1,0,0.2c0,0,0,0.1,0.1,0.1c0.2,0.1,0.3-0.1,0.5-0.1c0,0.1,0.1,0.1,0.2,0.1c0.1,0,0.2-0.1,0.2-0.2
		c0.1-0.1,0.2-0.1,0.3-0.2c0,0,0,0,0.1,0c0.1,0,0.1,0.1,0.1,0.2c0.1,0.1,0.2,0,0.2-0.1c0,0,0.1-0.1,0.2-0.1c0,0.1-0.1,0.2-0.2,0.3
		c-0.1,0.1-0.2,0.2-0.3,0.3c0,0-0.1,0.1-0.1,0.1c0,0,0,0.1,0,0.1c0,0,0,0-0.1,0.1c-0.3,0.2-0.5,0.5-0.8,0.7c0,0-0.1,0.1-0.1,0.1
		c0,0-0.1,0.1-0.1,0.1c0,0.1-0.1,0.1-0.1,0.2c0,0.1-0.1,0.2-0.1,0.3c0,0.1,0,0.2,0.1,0.2c0,0,0.1,0,0.1-0.1c0,0,0,0,0,0c0,0,0,0,0,0
		c0,0,0,0,0-0.1c0.1-0.1,0.2-0.1,0.3-0.1c0.1,0,0.1,0.3,0.2,0.3c0.1,0,0.1-0.1,0.2-0.1c0.1-0.1,0.2,0,0.3,0c0.2,0,0.3-0.1,0.4-0.3
		c0,0,0.1-0.1,0.1-0.1c0,0,0.1,0,0.1,0c0,0.1,0,0.1,0,0.2c0,0.1-0.1,0.1-0.1,0.2c-0.3,0.4-0.6,0.7-0.9,0.6c-0.1,0-0.3-0.1-0.4,0
		c0,0,0,0-0.1,0c0,0,0,0,0,0.1c0,0.1,0,0.1,0,0.2c0,0.1,0,0.2-0.1,0.3c0,0,0,0-0.1,0.1c-0.2,0.1-0.4,0.3-0.5,0.3
		c-0.1,0-0.1-0.1-0.2,0c0,0-0.1,0-0.1,0.1c0,0.1-0.1,0.1,0,0.2c0,0.1,0.1,0.2,0.2,0.2c0.1,0.1,0.2,0.2,0.3,0.2
		c0.1,0.1,0.2,0.1,0.3,0.1c0.1,0,0.2-0.1,0.2,0c0,0,0,0.1,0,0.1c0,0,0,0.1,0,0.1c0,0,0,0.1,0,0.1c0,0,0,0.1,0,0.1
		c0.1,0,0.2,0,0.2-0.1c0.1,0,0.2-0.1,0.2-0.2c0.1-0.1,0.1-0.1,0.2-0.2l0,0c0,0.1,0,0.1,0,0.1c0,0,0,0,0,0.1c0,0-0.1,0.1-0.1,0.1
		c0,0,0,0,0,0.1c0,0.1,0.1,0.1,0.2,0.1c0.1,0,0.2,0,0.2,0c0,0,0,0,0,0c0,0,0,0,0,0c0,0,0,0,0,0.1c0,0,0,0,0,0c0,0,0.1,0,0.1-0.1
		c0.1-0.1,0.1-0.2,0.1-0.3c0.1-0.1,0.1-0.2,0.2-0.4c0,0.1,0,0.2,0,0.3c0,0.2,0,0.3,0,0.4c0,0,0,0,0,0c0,0.1,0,0.3,0,0.4
		c0,0.3,0,0.4,0.1,0.4c0,0,0.1,0,0.1,0c0.1,0,0.1,0,0.2,0c0.1,0,0.1,0,0.2,0c0,0,0.1,0,0.1,0c0.2,0,0.1-0.1,0.1-0.4
		c0-0.1,0-0.2,0-0.3c0,0,0,0,0,0c0,0,0,0,0,0c0,0,0,0,0,0l0,0c0,0,0-0.1,0-0.1c0,0,0,0,0-0.1c0-0.1,0-0.2-0.1-0.4c0,0,0,0.1,0,0.1
		c0.1,0.2,0.1,0.4,0.2,0.5c0.1,0.1,0.2,0.1,0.3,0.2c0,0,0.1,0.1,0.1,0.1c0,0,0.1,0,0.1,0c0,0,0,0,0,0l0,0c0,0,0,0,0,0c0,0,0,0,0-0.1
		c0-0.1,0.1-0.1,0.2-0.1c0.1,0,0.1,0,0.2,0c0,0,0,0,0-0.1c0.1,0.1,0.1,0.1,0.2,0.2c0.1,0,0.1,0,0.2,0c0,0,0,0,0,0c0,0,0-0.1,0-0.2
		c0-0.2-0.1-0.4-0.2-0.5c0.1,0,0.2,0,0.2,0c0,0,0,0,0,0c0-0.1,0-0.1,0-0.2c0,0,0-0.1,0-0.1c0,0,0,0,0,0c0.1,0,0.1,0.1,0.2,0
		c0,0,0,0,0,0c0,0,0-0.1,0-0.1c0-0.3-0.2-0.6-0.3-0.8c0,0,0-0.1,0-0.1c0,0,0,0,0-0.1c0,0,0.1-0.1,0.2-0.1c0.1,0,0.2,0,0.2-0.1
		c0,0,0,0,0,0C572.8,433.8,572.8,433.6,572.7,433.5L572.7,433.5z M570.9,432.7c0,0-0.1-0.1-0.1-0.1c0,0,0-0.1,0-0.1
		c0-0.1,0-0.1-0.1-0.2c0,0,0-0.2-0.1-0.3c0,0.1,0,0.1,0.1,0.2C570.8,432.4,570.9,432.6,570.9,432.7C571,432.7,571,432.7,570.9,432.7
		L570.9,432.7z M570.5,427.2c0-0.1,0-0.2,0-0.3c0,0.1,0.1,0.2,0.2,0.3c0,0,0.1,0.1,0.1,0.1c0,0,0.1,0,0.1,0.1c0,0,0.1,0.1,0.1,0.2
		c0,0,0,0,0,0c-0.1-0.1-0.2-0.1-0.3-0.2C570.6,427.3,570.5,427.2,570.5,427.2C570.5,427.2,570.5,427.2,570.5,427.2L570.5,427.2z
		 M570.2,426.9C570.2,426.9,570.2,427,570.2,426.9L570.2,426.9c-0.1,0.3-0.2,0.5-0.4,0.7c0,0,0,0,0,0c0,0,0-0.1,0-0.1
		C570,427.3,570.1,427.1,570.2,426.9C570.2,426.9,570.2,426.9,570.2,426.9L570.2,426.9z M572.1,435.1
		C572.1,435.1,572.1,435.1,572.1,435.1c-0.4,0-0.7-0.3-0.9-0.7c0,0,0-0.1-0.1-0.1c0.2,0.3,0.5,0.5,0.7,0.6c0,0,0.1,0,0.1,0.1
		C572,435,572,435,572.1,435.1L572.1,435.1z"/>
	<text transform="matrix(1 0 0 1 609.3398 523.2627)" class="st3 st7">Established</text>
	<text transform="matrix(1 0 0 1 663.3135 523.0488)" class="st3 st7">2022</text>
</g>
</svg>
